<svg version="1.2" baseProfile="tiny" xmlns="http://www.w3.org/2000/svg" width="99.148" height="25.023">
  <path fill="#07698F" d="M48.566 25.023c-.074.027-.092.065 0 0 0 0-.021.015 0 0zm-23.702-.6c.158.203.281.666.594.601-.296-.554-.475-1.188-.383-1.818.058.479.63 1.968 1.25 1.818-.812-.898-1.412-2.604-.916-3.784.296.818.771 1.557 1.123 2.35.162.364.24 1.556.677 1.435-.362-1.429.124-2.884.315-4.298 1.27.898.055 3.171-.199 4.298.466.103.937-3.201.954-3.67 1.478.878.432 2.625-.25 3.67.586.149 1.282-2.136 1.486-2.614.3.408.758.484.581 1.001-.197.557-.44 1.097-.726 1.613.497.127.863-1.185 1.044-1.551.426.442.912.881.744 1.551.23-.008.397-.008.607 0-.925-1.894-2.684-3.814-4.59-4.755-.253-.125-1.295-.612-1.479-.216-.219.473-.398.97-.551 1.467-.349 1.141-.542 2.324-.706 3.505.104.027.343.027.446 0a1.478 1.478 0 0 1-.021-.603c.149.191-.041.202 0 0zm2.1-1.357c-.339-.748-.24-1.917-.763-2.752 1.565-.145.875 1.916.763 2.752zm-1.097-2.576c.529.787.505 1.777.794 2.651-.451-.362-1.503-2.29-.794-2.651.524.779-.051.026 0 0zm59.828 3.874c.035.3-.026.542.191.66-.046-1.029.293-1.954 1.211-2.496.026.363.096 2.564.416 2.496-.111-.77-.209-1.626.043-2.38.246-.733 1.078-.906 1.728-1.109-.035.775-.077 1.55-.097 2.326-.008.354-.271 1.314.315 1.163a14.457 14.457 0 0 1 .063-2.696c.043-.353.102-.707.181-1.054.021-.104 1.024-.298 1.17-.365-.089.882-.181 1.764-.229 2.649-.021.377-.33 1.641.31 1.465-.136-1.608-.37-4.452 1.923-4.529-.716 1.421-1.005 2.992-1.361 4.529.424.053.672-2.127.793-2.549.254-.896.707-2.091 1.78-2.212-.622 1.609-.959 3.411-2.108 4.761.588.157 1.227-.824 1.67-1.149.813-.595 1.697-1.098 2.457-1.764-.125 1.168-1.109 2.241-2.006 2.913.571 0 .815-.038 1.183-.548-.072.19-.163.374-.271.548.728 0 .655-.341.857-1.034a17.06 17.06 0 0 0 .538-2.459c.048-.349.082-.699.1-1.051-.301-.236-.679-.361-1.05-.436-.841-.167-1.711-.066-2.549.069-3.151.512-6.854 1.826-8.307 4.91h.483c.08.001.434-.567.566-.658.026.219-.252.173 0 0zm10.211-3.249c.414-.258.339.179.183.421a4.7 4.7 0 0 1-.655.792c-.498.493-1.104.989-1.814 1.114.792-.736 1.353-1.745 2.286-2.327.064-.039-.129.08 0 0zm-.067-.506c-1.082.604-1.681 1.95-2.508 2.57.382-.988.871-3.675 2.508-2.57zm-53.842-2.845c-.264.357-.617.971.033 1.19.765.258 1.437-.304 2.096-.583-.518.396-1.495.688-1.766 1.334-.442 1.06.97.452 1.178.94.878 2.059 1.809-2.075 1.476-2.075.076.752-.357 2.004.158 2.644.767.952.884-.67 1.35-.541.899.238 1.09-.563.698-1.189-.103-.164-1.415-1.318-1.465-1.271.04-.031 1.366.87 1.521.958.554.313 1.834.093 1.135-.712-.192-.221-.377-.345-.119-.592.28-.268.338-.802-.044-1.01-.666-.362-1.444.09-2.036.369.478-.274 1.066-.683 1.424-1.105.461-.543.137-1.299-.609-1.034-.403.146-.351.074-.554-.255-.178-.294-.597-.456-.888-.229-.701.544-.434 1.604-.451 2.352-.138-.658-.077-1.387-.352-2.013-.195-.444-.917-.77-1.121-.141-.234.725-.066.429-.709.629-.695.215-.462.899-.085 1.293-.389-.217-.964-.391-1.276.054-.341.487.492.659.406.987-.085.115.021-.078 0 0zm3.939.287c-.075.014-.102-.098-.033-.11.076-.014.102.098.033.11zm.014-.375c.012.049-.036.094-.083.067-.092-.056.052-.167.083-.067zm-.967.303c.027 0 .11-.006.079.071a.358.358 0 0 0-.079-.071zm.139.434c-.063.011-.066-.025-.009-.111.061.032.064.069.009.111-.012 0 .057-.011 0 0zm.149.272c-.074.012-.103-.098-.034-.111.076-.014.104.097.034.111zm.053-.693c.076-.012.104.097.034.111-.075.011-.102-.099-.034-.111zm-.014.323c-.022-.075.09-.097.111-.031.018.072-.087.101-.111.031zm.194.206c-.056.019-.098-.061-.052-.099.071-.057.138.084.052.099zm.233-1.16c.058-.021.1.06.052.098-.075.061-.135-.084-.052-.098zm-.083.351c.074-.012.102.099.032.111-.073.013-.101-.1-.032-.111zm-.043.461c-.036.06-.14.011-.099-.057.031-.062.135-.014.099.057zm-.109-1.027c.075-.013.101.099.032.11-.076.014-.101-.097-.032-.11zm-.035.312c.024.082-.111.1-.111.02-.009-.067.094-.083.111-.02zm-.1.236c.018.072-.09.104-.11.034-.025-.074.094-.102.11-.034zm-.181-.556c.083-.016.095.11.03.11-.08.016-.093-.11-.03-.11zm.016.364c-.036.062-.142.014-.101-.054.031-.063.135-.013.101.054zm-.144-.498c.059-.011.1.062.052.102-.064.052-.141-.07-.052-.102zm-.078.76c-.072.012-.103-.085-.033-.111.075-.012.104.098.033.111zm-.1-.463c.067-.054.139.071.052.102-.059.009-.101-.062-.052-.102zm-.266.406c-.065-.039-.005-.135.056-.101.043.045.021.142-.056.101zm-.01-.408c.056-.019.101.063.052.1-.076.058-.133-.086-.052-.1zm.072.574c.011.033-.07.077-.083.065-.096-.057.056-.173.083-.065zm-.277-.163c.073-.011.104.098.033.111-.072.012-.105-.084-.033-.111zm-27.842 3.152c-.173.104.046-.027 0 0zm9.287-2.933c-.009-.018-.006-.011 0 0zm0 .001c.011.023.028.059 0 0zm0 0c0-.004 0 .005 0 0 0-.001 0 0 0 0z"/>
  <path fill="#07698F" d="M11.21 24.927c.086-.062.847.097 1.034.097h8.761c.509 0 .792-.051.319-.697-.395-.538-1.084-.659-1.645-.945-.43-.266.017-.883.061-1.288.191-1.732-1.411-2.036-2.672-1.488.416-.973 1.162-1.169 2.159-1.389.554-.122 1.271.225 1.73.511.561.38.458.785.715 1.342.56 1.212 2.052-.046 1.018-.713-.382-.247-.889-.237-1.203-.565-.239-.244-.829-.688-1.194-.688.731-.037 1.458.099 2.188.063.625-.029 1.207-.224 1.83-.224.479 0 1.203.089 1.52-.377.198-.291.052-.796-.271-.942-.382-.172-.841.167-1.119.395-.455.369-.664.679-1.267.789-1.189.213-2.805-.377-3.909.134.35-.159.757-.407 1.132-.5.427-.114.914-.113 1.324-.283.644-.268.389-1.429-.319-1.237-.349.096-.421.457-.59.723-.219.343-.594.583-.961.747-.463.21-.966.369-1.365.7-.24.193-.635.165-.874.375.433-.776.863-1.302 1.447-1.994.362-.43 1.519-1.817 2.149-1.657.578.137 1.409 1.465 2.068.683.585-.695-.861-1.275-1.37-1.185.973-.465 1.783-.2 2.787-.229.901-.026 1.667-1.38.451-1.458-.994-.063-1.589.964-2.474 1.152-.923.195-1.862.712-2.562 1.342.569-.837.716-1.738 1.566-2.338.394-.278.818-.479 1.305-.513.531-.037 1.234.043 1.603-.441.256-.336.134-.823-.271-.967-.486-.172-1.012.182-1.352.5-.202.19-.312.393-.457.618-.261.383-.968.444-1.295.828.391-.968.893-1.946 1.692-2.643.623-.542 2.407-.974 1.993-2.159-.191-.548-.885-.445-1.215-.107-.386.395-.558 1.037-.753 1.542-.212.546-.675.944-1.004 1.414a8.897 8.897 0 0 0-.898 1.674c-.01-.506-.215-1.111-.191-1.588.23-.461.688-.667.992-1.073.251-.376.185-1.394-.503-1.156-.502.173-.785.991-.757 1.466-.207-.571-.556-1.113-.035-1.599.539-.501 1.451-.406 1.908-.989.65-.829-.355-1.774-1.197-1.212-.388.259-1.05.863-1.173 1.358.12-.825.762-1.424 1.156-2.128.363-.649.411-1.876-.692-1.635-.605.132-.884.755-.938 1.317-.037.404.044.812.108 1.21.067.417-.027 1.003.084 1.386-.209-.525-.444-1.14-.947-1.455-.663-.417-1.478.139-1.303.906.174.768 1.214 1.142 1.82 1.494.798.467.678 1.126 1.116 1.856-.292-.391-1.087-1.328-1.688-1.032-1.063.524.106 1.779.781 1.917.879.178 1.295.35 1.135 1.341-.152.932-.598 1.73-1.114 2.507.065-.857-.279-1.705-.766-2.395-.229-.326-.623-.594-.8-.944-.197-.39-.117-.814-.119-1.231-.002-.49-.369-1.604-1.067-1.02-.352.294-.211 1.313.154 1.569-.337-.237-.698-.445-.948-.782-.212-.286-.381-.608-.712-.777-.833-.426-1.116.924-.312 1.19.338.113.714.044 1.061.126.288.067.571.347.813.502.874.561 1.429 1.18 2.024 2.017-.401-.301-1.305-.808-1.783-.415-.302.248-.241.733-.039 1.02.34.479.881.396 1.386.311.294-.048.746-.225.8.17.064.468.062.939-.25 1.322-.691.848-1.584 1.744-1.918 2.813-.124-1.278-1.184-3.971-2.922-2.776-.321.22-.553.526-.835.789-.405.377-.543.206-.927-.121-.363-.309-.761-.311-.96-.744a21.765 21.765 0 0 0-.778-1.559c1.592.368 2.631-1.196 2.968-2.518-1.653.051-2.486.86-3.081 2.321-.292-.494-.629-.96-.984-1.41 2.182.153 3.142-2.269 3.226-4.046-2.144.513-2.982 1.79-3.371 3.864-.667-.833-1.367-1.642-1.949-2.539 2.105.625 3.557-1.586 3.994-3.304-.896.027-1.831.204-2.574.732-.824.586-1.157 1.515-1.528 2.409-.387-.621-.741-1.287-.831-2.025 1.597.507 2.711-1.201 3.042-2.496-1.614.05-2.48.821-3.063 2.277-.027-.369-.165-1.291.093-1.588.348-.404.556-.933.621-1.458.172-1.388-.676-2.655-1.64-3.563-.507.981-.828 2.145-.468 3.233.178.538.512 1.003.866 1.438.417.513.363.82.399 1.472-1.17-.886-2.177-1.196-3.543-.453.835.848 2.567 1.725 3.549.552.05.833.235 1.488.62 2.228-.749-.446-1.487-.961-2.383-1.035-1.019-.084-1.993.367-2.81.933.771.628 1.698 1.159 2.707 1.248.817.071 2.125-.234 2.529-1.061.473.896 1.04 1.743 1.696 2.515-1.682-1.05-3.226-1.054-4.876.091.97 1.144 2.366 1.524 3.787 1.043.308-.105.608-.241.883-.415.554-.35.473-.449.925.103.478.584.898 1.213 1.259 1.876-1.046-.822-2.111-.899-3.292-.259.872.884 2.399 1.628 3.484.623.172.338.333.682.481 1.031-1.551-.269-1.944 1.278-1.809 2.514.168 1.543 1.136 2.717 1.771 4.08-.858-1.105-1.481-2.375-2.326-3.489-.654-.862-2.217-2.015-3.184-.829-.679.833.687 2.348-.281 2.729-1.113.433-2.054 1.658-1.004 2.715.205.104.731 0 .954 0h4.663c.324-.001.774.086 1.004-.097.103-.073-.036.029 0 0zm3.991-3.517c.413-.781.9-1.549 1.065-2.431.447.33.94 1.498.291 1.884-1.024.611-1.664 1.586-2.405 2.481.331-.654.707-1.285 1.049-1.934.413-.782-.342.649 0 0zm-1.366 3.246c.151-.104.347.098.196.218-.151.107-.347-.107-.196-.218zm-.424-.473c.164.182-.14.276-.217.193-.126-.139.092-.33.217-.193.127.14-.127-.139 0 0zm-.682.618c-.015.188-.308.161-.292-.021.015-.186.304-.164.292.021-.015.186.012-.186 0 0zm-.346-.76c.023-.325.496.021.207.139-.101.039-.213-.025-.207-.139.013-.188.001-.019 0 0zm-.698.239c.145-.146.365.089.208.203-.147.143-.307-.104-.208-.203.003-.003.003-.003 0 0zm-.427-.18c.14-.098.355.101.195.217-.139.101-.348-.091-.195-.217.154-.106-.147.121 0 0zM.977 15.556c.458-.343.072-1.02-.447-1.02-.959.004-.5 1.72.447 1.02z"/>
  <path fill="#07698F" d="M22.927 20.34c.273.717 1.17-.142.763-.623-.319-.378-1.058-.156-.763.623zm15.098 3.936c-.318 0-.531.227-.526.54.005.322.242.208.501.208.074 0 .612.058.655 0 .097-.376-.264-.75-.63-.748-.469 0 .402-.002 0 0zm60.918-2.602c.459-.338.074-1.019-.444-1.016-.959 0-.499 1.717.444 1.016zM.956 17.544c.271.716 1.17-.142.763-.623-.32-.375-1.058-.155-.763.623zm2.456-2.123c-.519 0-.875.778-.418 1.12.945.701 1.376-1.117.418-1.12zm77.227 9.33a.608.608 0 0 0-.486.272h.957a.507.507 0 0 0-.471-.272c-.2 0 .238 0 0 0zm-1.305-.897c.457-.339.072-1.017-.445-1.017-.957.003-.5 1.721.445 1.017zM28.984 9.987c.458-.341.071-1.02-.448-1.02-.958.004-.499 1.721.448 1.02zm40.668-3.918c.457-.339.072-1.02-.445-1.017-.958 0-.5 1.719.445 1.017zm-23.455.809c-.52 0-.875.779-.418 1.12.946.701 1.376-1.117.418-1.12zm-17.215-.216c-.52 0-.877.778-.419 1.12.946.7 1.378-1.118.419-1.12zm-2.846-.717c-.519 0-.875.779-.418 1.118.946.703 1.376-1.115.418-1.118zM91.684 16.38c-.52 0-.875.778-.418 1.12.947.701 1.377-1.117.418-1.12zm-46.577-5.787c-.518 0-.875.778-.417 1.12.945.701 1.375-1.119.417-1.12zm28.909 13.481c-.651.002-.73.949-.039.949.252 0 .572.109.662-.193.111-.378-.256-.758-.623-.756-.573.002.487-.002 0 0zM42.851 9.02c.458-.338.071-1.017-.447-1.017-.959.003-.5 1.721.447 1.017zm51.878 5.24c.459-.338.072-1.016-.446-1.016-.96.002-.5 1.719.446 1.016zm-6.743.678c0-.007 0 .006 0 0 0-.001 0 0 0 0zm0 0v.002c.005.016.01.034 0-.002zm0-.002v.002c-.006-.023-.004-.014 0-.002z"/>
  <path fill="#07698F" d="M48.776 24.972c-.061.101.212.066.299.052-.36-.367 1.103-.55 1.427-.583a30.13 30.13 0 0 0-.329.583h.974a1.747 1.747 0 0 0-.5-.597c.799-.066 1.604-.024 2.405-.013-.178.201-.36.398-.526.608h1.039a1.72 1.72 0 0 0-.34-.606c.433.005.864-.013 1.293-.067a6.11 6.11 0 0 0-.357.674h.962c-.089-.261-.222-.52-.44-.696a17.602 17.602 0 0 0 1.713-.359c.25-.063.5-.131.748-.205.144.185.287.366.442.542-.456.115-.864.322-1.135.719h7.116c.216 0 1.226.108 1.309-.049.12.146.678.049.854.049h5.791c-.701-1.202-2.414-1.497-3.675-1.516-.534-.007-1.139-.118-1.665-.05-.095.014-.314.17-.342-.025-.042-.307.298-.014.373-.006 1.259.135 2.854.011 4.107-.168.979-.139 2.795-1.479 1.461-2.465.631-.203 1.521-.833 2.205-.416.643.352.888 1.141 1.526 1.519.857.502 1.017-.873.343-1.315-.681-.448-1.623-.596-2.422-.596.969-.404 1.742-1.279 2.476-2 .321-.327 1.646-.973 1.7-.254.054.688-.26 2.037.887 1.996 1.175-.042.39-1.541-.02-1.995.818.492 1.469.933 2.066 1.69.21.268.544.559.668.88.155.358.092.769.26 1.12.344.717 1.609.34 1.162-.431-.168-.289-.47-.438-.746-.599-.41-.241-.673-.586-.979-.941.348.358 1.566.446 1.66-.207.117-.799-.883-.79-1.393-.731-1.648.188-2.709-1.719-4.501-1.299.657-.532 1.341-1.011 2.156-1.264.946-.293 1.396-.151 1.642.813.211.825.866 1.467 1.756 1 .907-.481-.482-1.572-.914-1.847.569.265 1.313.161 1.737.673.476.573.834 1.523 1.536 1.858.594.283 1.348-.053 1.307-.781-.045-.767-1.111-1.183-1.729-1.311.294.051.646-.093.963-.059.384.042.769.059 1.154.057.771-.003 1.938-.415 1.708-1.418 0-1.705-3.234 1.02-3.7 1.125.383-.106.841-.706 1.058-.992.518-.686.225-2.081-.856-1.561-.714.344-.621 1.229-.896 1.855-.383.875-1.027.644-1.781.415.431-.013.972-.275 1.248-.605.461-.551-.205-1.037-.754-.845-.572.201-.676.868-1.141 1.186-.266.18-1.365-.015-1.736.011.994-.542 1.707-1.286 2.594-1.956.457-.346 2.871-1.24 1.815-2.166-.885-.777-1.599.841-1.839 1.384-.551 1.242-1.732 1.94-2.863 2.578.299-.301.481-.809.598-1.207.068-.236.361-.325.518-.479.307-.29.604-.763.624-1.194.03-.659-.751-1.023-1.167-.456-.332.454-.206 1.038-.189 1.557.021.588-.283 1.154-.604 1.626-.465.684-1.343.926-1.992 1.449a5.93 5.93 0 0 0 1.128-2.789c.107-.851 1.052-1.454.919-2.399-.132-.948-1.113-.688-1.356.034-.179.521.097 1.1.146 1.621a4.062 4.062 0 0 1-.187 1.671c.044-.503-.478-1.586-1.118-1.375-1.148.381.547 1.731.678 2.115.16.512-.828 1.648-1.181 2.003-.722.723-1.302 1.377-2.146 1.896.207-.28.148-.659.33-.95.269-.431.37-.928.563-1.392.128-.313.273-.647.511-.895.249-.261.672-.312.782-.701.225-.798-1.111-.943-1.285-.09-.167.818-.221 1.537-.521 2.335.405-1.134-.297-2.706-.209-3.896.053-.714 1.479-1.887.944-2.554-.229-.285-.723-.337-.979-.07-.449.465-.2 1.231-.162 1.789.031.484-.118.981-.102 1.475.027.755.227 1.491.256 2.246-.066-.666-.934-1.209-1.197-1.813-.166-.383-.451-.847-.942-.777-.388.054-.624.552-.503.909.139.407.673.543 1.047.588.514.054.773.249 1.063.69.65.998.64 2.209.056 3.258-.354.637-1.769 1.062-2.421.875-.339-.096-.967-.094-.859-.591.104-.479.153-.961-.078-1.415-.537-1.074-1.699-.771-2.522-.216-.981.66-1.507 1.697-2.093 2.684.328-1.091.858-2.116 1.185-3.21.146-.487.244-1.025.092-1.524-.135-.443-.472-.504-.22-.921.268-.444.549-.879.854-1.299.147-.205.301-.405.459-.602.239.16.527.259.813.295.198.025.958-.007.753-.426-.17-.348-.839-.391-1.161-.357.037-.04.461-.592.513-.556.407.168.939.282 1.381.274.213-.004.582-.161.367-.427-.271-.334-.963-.34-1.345-.311.099-.091.285-.409.464-.35.381.131.799.221 1.202.146.231-.043.563-.258.306-.512-.262-.278-.728-.235-1.064-.182.205-.196.417-.388.631-.573.268.245.896.396 1.244.355.32-.036.506-.328.184-.55-.265-.205-.617-.209-.935-.233.144-.106.54-.555.694-.461.297.182.662.309 1.014.321.234.009.895-.114.527-.503-.27-.287-.694-.283-1.056-.293.222-.165.441-.332.668-.49.083-.058.712.375.853.422.188.062.884.232.818-.207s-.771-.527-1.101-.606c.088-.044.524-.44.634-.352.294.242.663.44 1.039.513.189.036.735.025.561-.342-.168-.352-.748-.48-1.084-.554.133-.074.498-.389.658-.368.348.047.707.391 1.081.47.197.042.787.126.771-.256-.019-.439-.921-.541-1.224-.573.813-.442.633-.278 1.486.021.169.06.835.246.861-.138.02-.413-.698-.568-.986-.625.627-.362.612-.336 1.246-.083.598.239 1.208-.295.46-.563.287-.06.943-.273.933-.653-.021-.682-1.143.089-1.328.227.316-.507-.164-1.191-.53-.504-.144.267-.177.579-.179.876 0 .185-.539.366-.705.456.432-.566-.01-1.56-.442-.762a1.637 1.637 0 0 0-.202.863c.021.396-.355.438-.66.608.133-.257.262-.528.27-.824.007-.342-.398-.603-.596-.212a2.98 2.98 0 0 0-.313.921c-.075.53-.143.538-.611.816.246-.413.022-1.514-.414-.831-.201.352-.23.731-.234 1.122-.014.229-.457.405-.639.525.11-.297.199-.769-.008-1.048-.265-.356-.582.123-.623.37-.059.336.034.661.079.99.021.153-.616.514-.73.601.141-.3.325-.738.096-1.047-.219-.29-.497-.003-.599.209-.172.364-.125.797-.065 1.182.03.204-.42.444-.548.545.123-.318.134-1.659-.512-1.021-.264.26-.131.87-.063 1.18.098.438-.299.596-.604.883.078-.31.16-.653.041-.966-.174-.449-.594-.227-.678.134-.104.442.021.879.071 1.317-.021.16-.294.361-.415.489.031-.287.04-.619-.033-.901-.078-.308-.498-.51-.649-.118-.138.352.007.766.144 1.092.194.464.049.453-.281.841 0-.306.002-.772-.25-.995-.414-.364-.567.307-.521.584.039.231.134.449.242.656.194.364-.029.423-.267.739-.41.548-.786 1.12-1.127 1.715-.878-.737-1.599.218-2.09.869-.326.435-.523.184-.904-.05a1.748 1.748 0 0 0-1.404-.182c-1.113.334-.936 1.777-.668 2.642.369 1.203 1.318 2.084 1.979 3.121-.684-.666-1.278-1.428-1.894-2.155a7.679 7.679 0 0 0-.971-.996c-.527-.438-.701-.274-.592-.978.127-.801.221-1.607.236-2.419.001-.077 2.271-.703 2.611-.877a9.23 9.23 0 0 0 2.109-1.518c.399-.383 1.446-1.514.225-.961-1.637.738-3.521 1.394-4.883 2.612a12.96 12.96 0 0 0-.019-1.637c-.024-.459.697-.547 1.058-.762a12.56 12.56 0 0 0 3.144-2.657c.021-.021.913-1.048.407-.952-.407.078-.961.512-1.293.746-1.256.883-2.26 1.935-3.336 3.016 0-.592-.049-1.182-.115-1.77a60.762 60.762 0 0 0-.133-1.055c.129.05.341-.209.426-.277.992-.776 1.904-1.79 2.431-2.943.112-.248.667-1.165.46-1.424-.195-.243-1.109.688-1.238.811-.996.935-1.606 2.159-2.149 3.39-.013-.628-.201-1.296-.334-1.91-.123-.586-.22-.523.2-.852 1.115-.87 1.77-2.232 2.127-3.567.078-.291.438-1.197.255-1.503-.195-.321-.937.867-1.021.985-.801 1.131-1.613 2.4-1.855 3.789-.086-.387-.346-.864-.346-1.261.029-.77-.092-1.503-.313-2.239-.155-.511-.369-1-.609-1.477-.129-.253-.857-1.502-.805-.484.059 1.103.336 2.265.835 3.253.202.399.526.771.685 1.188.221.59.346 1.239.498 1.85-.465-.889-1.756-1.622-2.605-2.056-.182-.092-1.103-.666-1.297-.48-.27.257.66 1.118.818 1.273.832.824 1.939 1.362 2.969 1.896.459.237.402.839.5 1.378.117.655.187 1.316.253 1.979-.567-1.14-2.185-2.192-3.271-2.761-.467-.242-1.3-.758-1.854-.682-.388.055.747 1.167.866 1.278 1.035.965 2.103 1.947 3.367 2.603.615.317.957.188.989.925.033.736.114 1.494.049 2.229-.329-.754-1.596-1.397-2.271-1.774a8.772 8.772 0 0 0-1.586-.693c-.245-.081-.989-.428-1.264-.3-.422.197 1.639 1.533 1.836 1.653.912.553 1.881.936 2.84 1.39.459.215.396.167.371.682a20.314 20.314 0 0 1-.25 2.435c-.094.583-.104.316-.563.344-.418.025-.849.203-1.095.554-.424.65.746 2.078.242 2.374-.688.404-1.525 1.015-1.226 1.962a12.67 12.67 0 0 1-.771-1.208c1.082-.254 1.257-1.521 1.069-2.433-.886.463-1.293 1.148-1.217 2.157a9.058 9.058 0 0 1-.679-1.684c-.208-.308-.135-.456.221-.447a3.09 3.09 0 0 0 .869-.518c.814-.676 1.119-1.698.83-2.716-1.403.55-2.049 1.51-2.1 3.004a10.388 10.388 0 0 0-.857-2.11c1.691.237 2.182-2.181 2.072-3.346-1.575.618-2.021 1.668-2.106 3.281a3.876 3.876 0 0 0-1.129-1.315c1.147-.128 1.317-1.568 1.14-2.446-1.033.542-1.262 1.297-1.199 2.399-.129-.096-.574-.301-.627-.459-.146-.459-.265-.929-.519-1.345-.501-.814-1.445-1.159-2.354-1.263.141.841.467 1.729 1.158 2.273.375.294.844.468 1.32.474.506.008.846.274 1.257.596-1.153-.244-1.995-.027-2.703.958.939.333 2.486.352 2.829-.853.424.364.691.863.916 1.366-1.57-.316-2.697-.117-3.672 1.243 1.256.445 3.237.462 3.732-1.107.313.736.525 1.512.766 2.274-1.455-.624-2.604-.637-3.818.488 1.145.694 3.055 1.102 3.873-.32.131.41.281.814.467 1.203-1.168-.242-2.016-.054-2.735.95.964.342 2.377.346 2.812-.8a16.81 16.81 0 0 0 1.486 2.404c-.579.204-1.174.366-1.777.481.104-1.114-1.051-1.669-1.974-1.778.165.991.696 1.591 1.667 1.831-.599.1-1.206.138-1.813.115-.356.101-.476-.015-.354-.35a3.066 3.066 0 0 0-.218-.987c-.385-.986-1.262-1.596-2.318-1.64.082 1.504.792 2.421 2.196 2.935-.763-.032-1.526.02-2.277.154.777-1.522-1.397-2.761-2.522-3.02.093 1.696.959 2.448 2.456 3.031-.586.108-1.051.276-1.546.616.093.025.143-.001.213-.047-.01.017-.024.015 0 0zm16.106-.432c-.108.099-.161.03-.155-.202.11-.041.263.094.155.202-.021.019.104-.105 0 0zm.237-.422c-.125-.107.036-.304.169-.199.126.109-.044.311-.169.199-.014-.012.125.112 0 0zm.385.748c-.057.055-.163.059-.214-.019-.175-.269.433-.201.214.019-.014.013.131-.132 0 0zm.271-2.196c.117-.12.315.048.197.168-.118.109-.32-.054-.197-.168zm-.032 1.598c-.063.065-.187.047-.228-.045-.11-.257.443-.144.228.045-.013.013.123-.108 0 0zm-.206-2.157c.124.113-.037.311-.169.2-.124-.112.034-.301.169-.2zm-.255 1.284c.093-.093.282-.004.216.142-.079.174-.352-.008-.216-.142.006-.006.006-.006 0 0zm-.079-.862c.137.121-.057.294-.168.199-.129-.11.04-.297.168-.199.126.112-.131-.1 0 0zm-.262 1.122c-.104.102-.323-.036-.198-.168.118-.117.318.051.198.168-.011.013.12-.117 0 0zm-.205-1.88c.068-.07.189-.042.229.046.107.25-.432.16-.229-.046.014-.013-.116.119 0 0zm-.489 2.131l-.175-.016c.087-.177.351.053.175.016-.059-.014.024.005 0 0zm.153-.574c-.012-.021-.006-.031.023-.027-.027-.004-.034.006-.023.027zm.068-.28c-.091.091-.336-.023-.198-.168.121-.11.322.058.198.168-.005.006.124-.11 0 0zm-.12-.752c.108.082-.024.323-.168.196-.136-.111.065-.319.168-.196.013.011-.103-.123 0 0zm-.139-.649c.137.103-.044.304-.169.196-.127-.102.045-.309.169-.196.134.101-.123-.111 0 0zm-.4 1.831c-.055.056-.162.06-.211-.019-.183-.282.439-.184.211.019-.014.013.134-.121 0 0zm.061-.672a.14.14 0 0 1-.225-.046c-.108-.251.429-.158.225.046-.013.013.118-.118 0 0zm-.27-.784c.129.108-.035.304-.166.2-.134-.104.039-.307.166-.2.129.109-.129-.109 0 0zm-.218 2.12c-.017.023-.22.346-.229.027-.019-.224.283-.107.229-.027-.039.056.069-.104 0 0zm-.086-1.386c.006.167-.247.188-.26.021-.015-.167.239-.187.26-.021zm-.287-.812c.067-.067.187-.043.226.045.109.251-.43.164-.226-.045.012-.012-.118.12 0 0zm.014 1.625c.16 0 .191.247.021.258-.167.015-.185-.242-.021-.258.168 0-.164.016 0 0zm-.186.7c-.056.056-.162.06-.212-.019-.182-.278.443-.185.212.019-.013.013.138-.12 0 0zm-.355-1.111c-.014-.292.438-.037.201.098-.083.048-.194 0-.201-.098-.005-.167 0-.016 0 0zm-5.093.524c.344.223.731.362 1.127.46-.23.018-.46.052-.686.101-.059-.057-.613-.506-.441-.561.341.223-.022.007 0 0z"/>
  <g fill="#07698F">
    <path d="M57.389 23.686c-.022.007.118.076 0 0zM48.287 24.132c.155.248-.37-.595 0 0zM46.54 23.216c.161.981.864 1.931 1.966 1.809.049-.308-.058-.635-.219-.893-.371-.594-1.085-.838-1.747-.916zM65.432 5.963c-.957.003-.498 1.721.447 1.018.459-.34.073-1.02-.447-1.018zM28.917 18.997l-.177-.099.177.099zM39.895 16.132c-.665.141-1.31.313-1.991.354-.158.01-1.725.08-1.224-.382.876-.809 2.307.082 3.268-.476.588-.341.584-.926.566-1.527-.011-.357-.019-.716-.063-1.07-.047-.368-.521.106-.695.2-.438.235-1.024.612-1.539.615-.477.002.291-.485.362-.521 1.093-.553 1.652-.877 1.423-2.25-.077-.449-.06-.844-.548-.88-.585-.043-1.171-.16-1.751-.002-1.436.389-1.137 1.855-1.577 3.003-.122.319-.507.671-.477.11.028-.523.222-1.041.375-1.537.108-.353.56-1.111.007-1.172-.558-.063-1.282-.104-1.823.1-1.075.403-.576 2.666-.523 3.519.004.067-.027 1.461-.329.856-.319-.634-.184-1.451-.136-2.126.022-.321.229-1.736-.179-1.706-.822.058-1.523.441-1.842 1.216-.349.849-.664 1.821-.318 2.711.144.374.341.723.541 1.067.054.094.47 1.036-.118.741-.745-.369-.922-1.899-.997-2.609-.018-.167.021-.999-.115-1.061-.439-.199-.775.247-1.003.546-.882 1.153-2.239 4.042-.457 5.043-.067-.037-.102-.057.003.002l.004.002c.737.41 1.642.459 2.466.438.791-.019 1.403-.276 1.606.685.133.625.159 1.211.431 1.809.138.302.747 1.119 1.35 1.493.657.407 1.037.153 1.469-.046.842-.388.609-.628-.772-2.012-.525-.526-.973-.625-.729-.766l-.029-.001c.216-.376 1.013.341 1.117.493.321.47.644 1.052 1.112 1.393.83.604 2.408-1.968 1.967-2.254a6.46 6.46 0 0 0-1.72-.767c-.238-.066-.581-.056-.753-.271-.208-.259.165-.464.364-.485.531-.06 1.182.77 1.614 1.014.737.418 1.163.118 1.504-.603a7.037 7.037 0 0 0 .591-1.933c.095-.608.276-1.102-.432-.953zm-6.941-.381c-.173.35-.931-1.048-.233-.915.188.122.362.654.233.915zm2.144-2.571c.324-.228.242.658.183.766-.189.343-.52-.53-.183-.766zm.067 5.53c-.375-.103-1.457-.792-1.334-.909a.614.614 0 0 1 .416.018c.35.071.709.154 1.018.343.321.195.316.58-.1.548zm.173-2.543c.26.007.768.087.813.208.013.029.025.059.036.088.374.834-2.814-.353-.849-.296zm.858-1.663c-.441-.104.449-.615.474-.244.013.206-.278.29-.474.244z"/>
  </g>
</svg>
