<?xml version="1.0" encoding="utf-8"?>
<!-- Generator: Adobe Illustrator 16.0.0, SVG Export Plug-In . SVG Version: 6.00 Build 0)  -->
<!DOCTYPE svg PUBLIC "-//W3C//DTD SVG 1.1//EN" "http://www.w3.org/Graphics/SVG/1.1/DTD/svg11.dtd">
<svg version="1.1" id="Capa_1" xmlns="http://www.w3.org/2000/svg" xmlns:xlink="http://www.w3.org/1999/xlink" x="0px" y="0px"
	 width="50px" height="50px" viewBox="281 281 50 50" enable-background="new 281 281 50 50" xml:space="preserve">
<g>
	<g>
		<path fill="#9E9FA0" d="M329.004,296.268c-2.636-6.146-7.115-10.616-13.312-13.259c-3.098-1.321-6.343-1.996-9.732-1.996
			s-6.611,0.668-9.705,1.996c-6.146,2.636-10.646,7.103-13.286,13.259c-1.323,3.084-1.968,6.315-1.968,9.705
			s0.645,6.647,1.968,9.732c2.641,6.156,7.141,10.649,13.286,13.286c3.094,1.327,6.315,1.995,9.705,1.995s6.635-0.675,9.732-1.995
			c6.196-2.644,10.676-7.141,13.312-13.286c1.328-3.095,1.996-6.343,1.996-9.732S330.332,299.362,329.004,296.268z M325.014,317.018
			c-1.963,3.365-4.651,6.035-8.037,8.01c-3.366,1.962-7.054,2.952-11.017,2.952c-2.979,0-5.823-0.574-8.529-1.75
			c-2.707-1.175-5.043-2.72-6.999-4.674c-1.955-1.955-3.511-4.315-4.674-7.026c-1.16-2.701-1.722-5.576-1.722-8.557
			c0-3.964,0.974-7.633,2.925-10.989c1.958-3.369,4.647-6.042,8.01-8.01c3.362-1.968,7.025-2.953,10.989-2.953
			c3.964,0,7.651,0.991,11.017,2.953c3.386,1.974,6.069,4.647,8.037,8.01c1.969,3.362,2.952,7.025,2.952,10.989
			S326.987,313.631,325.014,317.018z"/>
		<path fill="#9E9FA0" d="M307.545,305.754v-14.161c0-0.848-0.738-1.531-1.586-1.531c-0.793,0-1.504,0.684-1.504,1.531v14.379
			c0,0.027,0.055,0.137,0.055,0.219c-0.055,0.492,0.082,0.902,0.41,1.23l8.174,8.174c0.547,0.547,1.558,0.547,2.104,0
			c0.629-0.629,0.587-1.541,0-2.133L307.545,305.754z"/>
	</g>
</g>
</svg>
