<?xml version="1.0" encoding="utf-8"?>
<!-- Generator: Adobe Illustrator 16.0.0, SVG Export Plug-In . SVG Version: 6.00 Build 0)  -->
<!DOCTYPE svg PUBLIC "-//W3C//DTD SVG 1.1//EN" "http://www.w3.org/Graphics/SVG/1.1/DTD/svg11.dtd">
<svg version="1.1" id="Capa_1" xmlns="http://www.w3.org/2000/svg" xmlns:xlink="http://www.w3.org/1999/xlink" x="0px" y="0px"
	 width="55px" height="40px" viewBox="0 0 55 40" enable-background="new 0 0 55 40" xml:space="preserve">
<g>
	<g>
		<g>
			<path fill="#D37A67" d="M12.399,40.117l-6.22-3.612c2.623-4.117,3.979-8.37,4.071-12.762v-7.729h10.519v7.089
				c0,2.744-0.763,5.717-2.287,8.919C16.957,35.224,14.93,37.922,12.399,40.117z"/>
		</g>
		<rect x="0.451" y="-0.039" fill="#D37B67" width="20.331" height="20.33"/>
	</g>
	<g>
		<g>
			<path fill="#D37A67" d="M46.165,40.039l-6.22-3.613c2.622-4.116,3.979-8.37,4.071-12.761v-7.729h10.519v7.089
				c0,2.743-0.763,5.717-2.287,8.918S48.696,37.844,46.165,40.039z"/>
		</g>
		<rect x="34.218" y="-0.117" fill="#D37B67" width="20.331" height="20.331"/>
	</g>
</g>
</svg>
