<?xml version="1.0" encoding="utf-8"?>
<!-- Generator: Adobe Illustrator 16.0.0, SVG Export Plug-In . SVG Version: 6.00 Build 0)  -->
<!DOCTYPE svg PUBLIC "-//W3C//DTD SVG 1.1//EN" "http://www.w3.org/Graphics/SVG/1.1/DTD/svg11.dtd">
<svg version="1.1" id="Capa_1" xmlns="http://www.w3.org/2000/svg" xmlns:xlink="http://www.w3.org/1999/xlink" x="0px" y="0px"
	 width="55px" height="40px" viewBox="0 0 55 40" enable-background="new 0 0 55 40" xml:space="preserve">
<g>
	<g>
		<g>
			<path fill="#D37A67" d="M42.601-0.117l6.221,3.612c-2.623,4.117-3.979,8.37-4.071,12.762v7.729H34.23v-7.09
				c0-2.744,0.764-5.717,2.287-8.919C38.043,4.776,40.069,2.078,42.601-0.117z"/>
		</g>
		<rect x="34.218" y="19.708" fill="#D37B67" width="20.331" height="20.331"/>
	</g>
	<g>
		<g>
			<path fill="#D37A67" d="M8.835-0.039l6.22,3.613c-2.622,4.116-3.979,8.37-4.071,12.761v7.729H0.465v-7.09
				c0-2.743,0.763-5.717,2.287-8.918S6.304,2.156,8.835-0.039z"/>
		</g>
		<rect x="0.451" y="19.787" fill="#D37B67" width="20.331" height="20.331"/>
	</g>
</g>
</svg>
