<?xml version="1.0" encoding="utf-8"?>
<!-- Generator: Adobe Illustrator 16.0.0, SVG Export Plug-In . SVG Version: 6.00 Build 0)  -->
<!DOCTYPE svg PUBLIC "-//W3C//DTD SVG 1.1//EN" "http://www.w3.org/Graphics/SVG/1.1/DTD/svg11.dtd">
<svg version="1.1" id="Capa_1" xmlns="http://www.w3.org/2000/svg" xmlns:xlink="http://www.w3.org/1999/xlink" x="0px" y="0px"
	 width="30px" height="30px" viewBox="0 0 30 30" enable-background="new 0 0 30 30" xml:space="preserve">
<title>envio-gratis-icon</title>
<g>
	<path fill="#3C698B" d="M24.438,21.012l-0.002-0.002c-1.697,0.002-3.07,1.379-3.07,3.074c0.002,1.697,1.377,3.07,3.074,3.07
		c1.695-0.002,3.068-1.375,3.07-3.07C27.51,22.389,26.135,21.012,24.438,21.012z M24.436,25.691c-0.889,0-1.609-0.721-1.609-1.609
		c0.002-0.889,0.721-1.609,1.609-1.609s1.609,0.721,1.609,1.609S25.324,25.691,24.436,25.691z"/>
	<path fill="#3C698B" d="M29.357,20.244l-3.971-6.914h-6.014v8.951H8.326c-0.558-0.77-1.463-1.271-2.487-1.271c0,0-0.001,0-0.002,0
		l-0.002,0.002c-1.022,0-1.927,0.502-2.485,1.27H1.391c-0.492,0-0.892,0.4-0.891,0.893c0,0.494,0.399,0.891,0.891,0.893h1.375
		c0,0.006,0,0.012,0,0.02c0.001,1.697,1.377,3.07,3.074,3.07c1.696-0.002,3.07-1.377,3.07-3.072c0-0.006,0-0.012,0-0.018h11.88
		c0,0,0-0.018,0-0.023c0-2.021,1.637-3.656,3.654-3.656c2.02,0,3.656,1.635,3.656,3.656h1.4v-3.258
		C29.5,20.596,29.451,20.408,29.357,20.244z M5.834,25.691c-0.887-0.002-1.606-0.721-1.607-1.607
		c0.001-0.889,0.72-1.609,1.608-1.609l0.002-0.002c0.889,0,1.609,0.723,1.607,1.611C7.444,24.973,6.723,25.691,5.834,25.691z
		 M20.98,16.809v-1.814c0-0.131,0.105-0.238,0.238-0.238h3.371c0.086,0,0.164,0.047,0.207,0.119l3.139,5.503L20.98,16.809z"/>
	<path fill="#3C698B" d="M4.062,8.264c0.394,0.198,0.829,0.301,1.27,0.303H15.3c1.583,0.002,2.866-1.277,2.868-2.857
		c0-0.446-0.104-0.888-0.305-1.286c-0.707-1.414-2.428-1.984-3.84-1.276c-0.275,0.138-0.526,0.319-0.743,0.536l-2.956,2.957
		L7.369,3.684C6.252,2.566,4.441,2.564,3.323,3.68C3.104,3.897,2.924,4.149,2.786,4.424C2.078,5.836,2.649,7.555,4.062,8.264z
		 M14.335,4.735c0.253-0.258,0.6-0.4,0.96-0.398c0.519-0.002,0.996,0.291,1.228,0.754c0.336,0.675,0.064,1.496-0.61,1.833
		c-0.191,0.095-0.4,0.145-0.613,0.145h-3.297L14.335,4.735z M4.11,5.091c0.232-0.464,0.708-0.756,1.227-0.754
		c0.361-0.002,0.708,0.143,0.961,0.4l2.33,2.332H5.332c-0.754,0-1.365-0.611-1.366-1.366C3.965,5.492,4.015,5.281,4.11,5.091z"/>
	<path fill="#3C698B" d="M5.697,19.553c1.289,0,2.45,0.738,3.244,1.629h0.772v-7.388h-7.79v7.388h0.53
		C3.25,20.287,4.408,19.553,5.697,19.553z"/>
	<rect x="1.923" y="9.545" fill="#3C698B" width="7.792" height="3.055"/>
	<rect x="10.917" y="9.545" fill="#3C698B" width="7.296" height="3.055"/>
	<rect x="10.917" y="13.801" fill="#3C698B" width="7.296" height="7.38"/>
</g>
</svg>
