<?xml version="1.0" encoding="utf-8"?>
<!-- Generator: Adobe Illustrator 16.0.0, SVG Export Plug-In . SVG Version: 6.00 Build 0)  -->
<!DOCTYPE svg PUBLIC "-//W3C//DTD SVG 1.1//EN" "http://www.w3.org/Graphics/SVG/1.1/DTD/svg11.dtd">
<svg version="1.1" id="Capa_1" xmlns="http://www.w3.org/2000/svg" xmlns:xlink="http://www.w3.org/1999/xlink" x="0px" y="0px"
	 width="30px" height="30px" viewBox="0 0 30 30" enable-background="new 0 0 30 30" xml:space="preserve">
<path fill="#E27D68" d="M28.321,10.615l-8.42-1.082l-3.612-7.639c-0.143-0.302-0.385-0.545-0.687-0.687
	c-0.192-0.091-0.401-0.14-0.612-0.142c-0.542,0.001-1.036,0.312-1.27,0.8l0,0l-3.632,7.667l-8.41,1.082l0,0
	c-0.332,0.04-0.638,0.196-0.865,0.441c-0.132,0.139-0.234,0.302-0.301,0.479c-0.203,0.54-0.062,1.148,0.357,1.544l6.182,5.861
	l-1.59,8.298c-0.092,0.447,0.042,0.91,0.357,1.241l0.076,0.065c0.064,0.06,0.133,0.113,0.207,0.16l0.075,0.047
	c0.098,0.056,0.202,0.1,0.311,0.132h0.056c0.094,0.01,0.188,0.01,0.282,0h0.104h0.226h0.104c0.108-0.028,0.212-0.069,0.311-0.123
	l0,0L15,24.67l0,0l7.432,4.083c0.213,0.118,0.454,0.181,0.696,0.18h0.264c0.775-0.146,1.287-0.895,1.142-1.671
	c-0.003-0.004-0.003-0.01-0.003-0.014l-1.6-8.307l6.124-5.74c0.28-0.239,0.46-0.575,0.508-0.939c0.12-0.786-0.419-1.52-1.204-1.642
	C28.347,10.618,28.334,10.617,28.321,10.615z M28.415,12.496l-6.125,5.739l-0.375,0.357l0.093,0.508l1.601,8.307
	c0.051,0.263-0.116,0.518-0.377,0.574h-0.094c-0.085,0-0.171-0.022-0.244-0.066l-7.423-4.073l-0.442-0.244V2.008
	c0.068-0.015,0.139-0.015,0.207,0c0.111,0.061,0.195,0.161,0.235,0.281l3.613,7.679l0.15,0.505l0.518,0.067l8.42,1.054
	c0.268,0.034,0.459,0.277,0.432,0.545c-0.024,0.127-0.09,0.242-0.188,0.33V12.496z"/>
</svg>
