<?xml version="1.0" encoding="utf-8"?>
<!-- Generator: Adobe Illustrator 16.0.0, SVG Export Plug-In . SVG Version: 6.00 Build 0)  -->
<!DOCTYPE svg PUBLIC "-//W3C//DTD SVG 1.1//EN" "http://www.w3.org/Graphics/SVG/1.1/DTD/svg11.dtd">
<svg version="1.1" id="Capa_1" xmlns="http://www.w3.org/2000/svg" xmlns:xlink="http://www.w3.org/1999/xlink" x="0px" y="0px"
	 width="30px" height="30px" viewBox="0 0 30 30" enable-background="new 0 0 30 30" xml:space="preserve">
<path fill="#E27D68" d="M28.321,10.615L19.9,9.533l-3.612-7.639c-0.141-0.302-0.384-0.544-0.687-0.686
	c-0.191-0.091-0.4-0.139-0.611-0.141c-0.542,0-1.036,0.312-1.27,0.799l0,0l-3.632,7.667l-8.41,1.083l0,0
	c-0.332,0.04-0.638,0.196-0.865,0.441c-0.132,0.139-0.234,0.302-0.301,0.48c-0.203,0.54-0.062,1.148,0.357,1.543l6.182,5.861
	L5.46,27.24c-0.092,0.447,0.042,0.908,0.357,1.24l0.076,0.066c0.064,0.059,0.133,0.111,0.208,0.16l0.075,0.045
	c0.098,0.057,0.202,0.1,0.311,0.133h0.056c0.094,0.01,0.188,0.01,0.282,0h0.104h0.226h0.104c0.108-0.027,0.212-0.068,0.311-0.123
	l0,0L15,24.67l0,0l7.432,4.082c0.213,0.119,0.454,0.182,0.697,0.182h0.263c0.774-0.148,1.287-0.895,1.142-1.672
	c-0.002-0.006-0.002-0.01-0.005-0.014l-1.598-8.307l6.124-5.74c0.28-0.24,0.46-0.575,0.508-0.94c0.119-0.786-0.419-1.52-1.205-1.641
	C28.345,10.618,28.334,10.617,28.321,10.615z"/>
</svg>
