<?xml version="1.0" encoding="utf-8"?>
<!-- Generator: Adobe Illustrator 16.0.0, SVG Export Plug-In . SVG Version: 6.00 Build 0)  -->
<!DOCTYPE svg PUBLIC "-//W3C//DTD SVG 1.1//EN" "http://www.w3.org/Graphics/SVG/1.1/DTD/svg11.dtd">
<svg version="1.1" id="Capa_1" xmlns="http://www.w3.org/2000/svg" xmlns:xlink="http://www.w3.org/1999/xlink" x="0px" y="0px"
	 width="50px" height="50px" viewBox="281 281 50 50" enable-background="new 281 281 50 50" xml:space="preserve">
<g>
	<g>
		<g>
			<path fill="#9E9FA0" d="M306,281c-9.692,0-17.578,7.886-17.578,17.578c0,3.274,0.907,6.471,2.624,9.243L305,330.307
				c0.268,0.432,0.738,0.693,1.245,0.693c0.004,0,0.007,0,0.012,0c0.51-0.005,0.982-0.273,1.246-0.713l13.597-22.703
				c1.623-2.714,2.479-5.828,2.479-9.006C323.578,288.886,315.692,281,306,281z M318.585,306.08l-12.363,20.642l-12.686-20.443
				c-1.429-2.308-2.204-4.971-2.204-7.7c0-8.077,6.59-14.667,14.667-14.667c8.078,0,14.658,6.59,14.658,14.667
				C320.658,301.227,319.935,303.821,318.585,306.08z"/>
		</g>
	</g>
	<g>
		<g>
			<path fill="#9E9FA0" d="M306,289.79c-4.846,0-8.789,3.942-8.789,8.789c0,4.815,3.878,8.789,8.789,8.789
				c4.971,0,8.789-4.026,8.789-8.789C314.789,293.732,310.847,289.79,306,289.79z M306,304.457c-3.248,0-5.879-2.64-5.879-5.879
				c0-3.23,2.648-5.879,5.879-5.879c3.229,0,5.869,2.648,5.869,5.879C311.869,301.77,309.298,304.457,306,304.457z"/>
		</g>
	</g>
</g>
</svg>
