<?xml version="1.0" encoding="utf-8"?>
<!-- Generator: Adobe Illustrator 15.0.0, SVG Export Plug-In . SVG Version: 6.00 Build 0)  -->
<svg version="1.2" baseProfile="tiny" id="Calque_1"
	 xmlns="http://www.w3.org/2000/svg" xmlns:xlink="http://www.w3.org/1999/xlink" x="0px" y="0px" width="60px" height="42.033px"
	 viewBox="0 0 60 42.033" xml:space="preserve">
<g id="g4167" transform="matrix(7.8701756,0,0,7.8701756,695.19553,-948.4235)">
	<path id="path4156" fill="#FF0000" d="M-84.519,120.509c0,0-2.385,0-2.984,0.156c-0.321,0.09-0.585,0.354-0.674,0.679
		c-0.156,0.599-0.156,1.838-0.156,1.838s0,1.245,0.156,1.834c0.09,0.325,0.349,0.584,0.674,0.674c0.603,0.16,2.984,0.16,2.984,0.16
		s2.39,0,2.989-0.156c0.325-0.089,0.585-0.344,0.669-0.674c0.16-0.594,0.16-1.834,0.16-1.834s0.005-1.245-0.16-1.843
		c-0.085-0.325-0.344-0.584-0.669-0.669C-82.129,120.509-84.519,120.509-84.519,120.509z M-85.278,122.036l1.984,1.145l-1.984,1.141
		V122.036z"/>
</g>
</svg>
