<?xml version="1.0" encoding="utf-8"?>
<!-- Generator: Adobe Illustrator 16.0.0, SVG Export Plug-In . SVG Version: 6.00 Build 0)  -->
<!DOCTYPE svg PUBLIC "-//W3C//DTD SVG 1.1//EN" "http://www.w3.org/Graphics/SVG/1.1/DTD/svg11.dtd">
<svg version="1.1" id="Capa_1" xmlns="http://www.w3.org/2000/svg" xmlns:xlink="http://www.w3.org/1999/xlink" x="0px" y="0px"
	 width="30px" height="30px" viewBox="0 0 30 30" enable-background="new 0 0 30 30" xml:space="preserve">
<path fill="#3C698B" d="M28.036,5.028c-1.089-0.941-2.734-0.821-3.674,0.269c-0.018,0.019-0.032,0.037-0.049,0.057l-11.743,13.96
	L5.265,13.11c-1.126-0.909-2.776-0.73-3.684,0.395c-0.908,1.126-0.731,2.777,0.396,3.686l0,0l9.307,7.755
	c1.075,0.957,2.722,0.861,3.679-0.213c0.015-0.018,0.029-0.033,0.044-0.051L28.408,8.704c0.913-1.112,0.752-2.755-0.362-3.667
	C28.044,5.033,28.04,5.031,28.036,5.028z"/>
</svg>
