<?xml version="1.0" encoding="utf-8"?>
<!-- Generator: Adobe Illustrator 16.0.0, SVG Export Plug-In . SVG Version: 6.00 Build 0)  -->
<!DOCTYPE svg PUBLIC "-//W3C//DTD SVG 1.1//EN" "http://www.w3.org/Graphics/SVG/1.1/DTD/svg11.dtd">
<svg version="1.1" id="Calque_1" xmlns="http://www.w3.org/2000/svg" xmlns:xlink="http://www.w3.org/1999/xlink" x="0px" y="0px"
	 width="65px" height="40.48px" viewBox="0 22.203 65 40.48" enable-background="new 0 22.203 65 40.48" xml:space="preserve">
<title>logo-color</title>
<rect x="5.475" y="30.599" fill="#FFFFFF" width="9.844" height="12.17"/>
<rect x="27.399" y="29.077" fill="#FFFFFF" width="10.47" height="12.618"/>
<rect x="47.892" y="29.883" fill="#FFFFFF" width="13.378" height="13.379"/>
<path fill="#FF7E67" d="M12.434,37.161c-0.406-0.229-0.969-0.28-1.688-0.153l-2.095,0.37l0.597,3.383l2.102-0.371
	c0.328-0.051,0.646-0.151,0.943-0.299c0.232-0.115,0.437-0.279,0.601-0.479c0.145-0.183,0.242-0.397,0.285-0.626
	c0.044-0.241,0.044-0.489,0-0.73C13.087,37.755,12.839,37.39,12.434,37.161z"/>
<path fill="#FF7E67" d="M20.925,43.488L18.02,27.017c-0.075-0.425-0.479-0.708-0.903-0.634c0,0,0,0,0,0L0.645,29.289
	c-0.425,0.075-0.708,0.48-0.633,0.905l2.905,16.471c0.074,0.424,0.478,0.707,0.902,0.633c0,0,0.001,0,0.002,0l16.473-2.904
	C20.717,44.316,20.999,43.912,20.925,43.488z M14.448,39.228c-0.091,0.365-0.266,0.705-0.51,0.991
	c-0.271,0.314-0.601,0.571-0.972,0.757c-0.445,0.223-0.921,0.376-1.412,0.456l-3.438,0.605L6.402,32.32l3.099-0.547
	c0.518-0.101,1.047-0.133,1.573-0.096c0.401,0.027,0.793,0.134,1.152,0.314c0.308,0.16,0.568,0.397,0.757,0.688
	c0.197,0.312,0.329,0.661,0.387,1.025c0.042,0.235,0.045,0.476,0.01,0.711c-0.036,0.237-0.114,0.466-0.23,0.677
	c-0.126,0.227-0.288,0.433-0.479,0.608c-0.222,0.203-0.47,0.374-0.739,0.508c0.734,0.015,1.315,0.176,1.743,0.482
	c0.427,0.307,0.694,0.763,0.801,1.369C14.549,38.448,14.54,38.846,14.448,39.228z"/>
<path fill="#FF7E67" d="M11.163,35.843c0.233-0.111,0.442-0.267,0.615-0.458c0.15-0.169,0.255-0.374,0.304-0.595
	c0.05-0.229,0.053-0.466,0.01-0.697c-0.1-0.57-0.346-0.958-0.736-1.164c-0.391-0.206-0.948-0.245-1.67-0.118l-1.784,0.314
	l0.584,3.315l1.736-0.306C10.547,36.084,10.865,35.986,11.163,35.843z"/>
<path fill="#A2D4F2" d="M33.541,31.822c-0.066,0.183-0.131,0.352-0.191,0.505c-0.062,0.153-0.121,0.288-0.18,0.403l-1.892,3.857
	l3.669,0.321l-1.191-4.133C33.664,32.462,33.592,32.144,33.541,31.822z"/>
<path fill="#A2D4F2" d="M42.346,27.314l-16.663-1.461c-0.429-0.037-0.808,0.28-0.845,0.709c0,0.002,0,0.004,0,0.006l-1.458,16.658
	c-0.037,0.43,0.28,0.807,0.709,0.846l16.663,1.458c0.022,0,0.046,0,0.069,0c0.404-0.001,0.742-0.312,0.775-0.716l1.459-16.654
	C43.092,27.731,42.774,27.353,42.346,27.314z M36.372,40.708c-0.104-0.004-0.202-0.045-0.28-0.115
	c-0.068-0.067-0.119-0.151-0.145-0.243l-0.717-2.454l-4.409-0.386l-1.127,2.292c-0.042,0.083-0.105,0.154-0.183,0.205
	c-0.087,0.058-0.192,0.083-0.296,0.071l-1.026-0.087l4.791-9.486l1.352,0.118l3.07,10.173L36.372,40.708z"/>
<path fill="#FF7E67" d="M64.355,29.289l-16.472-2.904c-0.423-0.074-0.827,0.208-0.903,0.632l-2.905,16.472
	c-0.073,0.424,0.209,0.828,0.633,0.904l16.473,2.904c0.424,0.074,0.828-0.209,0.903-0.633l0,0l2.904-16.471
	C65.062,29.769,64.78,29.364,64.355,29.289z M58.803,42.354L57.65,42.15l1.26-7.14c0.016-0.095,0.036-0.196,0.061-0.304
	c0.023-0.108,0.05-0.217,0.078-0.328l-4.4,5.489c-0.118,0.171-0.324,0.258-0.529,0.222l-0.189-0.033
	c-0.204-0.036-0.368-0.188-0.421-0.388l-2.327-6.696c-0.006,0.12-0.017,0.236-0.029,0.351c-0.014,0.114-0.028,0.219-0.045,0.314
	l-1.264,7.138l-1.152-0.203l1.715-9.717l0.969,0.171c0.094,0.012,0.185,0.04,0.27,0.082c0.073,0.055,0.127,0.133,0.148,0.222
	l2.303,6.572c0.044,0.121,0.079,0.245,0.105,0.371c0.025,0.128,0.051,0.258,0.074,0.388c0.068-0.119,0.137-0.232,0.206-0.337
	s0.147-0.212,0.231-0.319l4.34-5.393c0.052-0.076,0.129-0.132,0.217-0.158c0.092-0.01,0.186-0.005,0.277,0.015l0.969,0.171
	L58.803,42.354z"/>
<path fill="#07698F" d="M34.95,52.39c-0.339-0.353-0.747-0.63-1.2-0.813c-0.996-0.387-2.1-0.387-3.095,0
	c-0.452,0.184-0.86,0.461-1.197,0.813c-0.339,0.358-0.602,0.782-0.773,1.245c-0.365,1.027-0.365,2.147,0,3.174
	c0.171,0.463,0.434,0.885,0.773,1.243c0.338,0.35,0.746,0.624,1.197,0.806c0.996,0.383,2.099,0.383,3.095,0
	c0.453-0.182,0.861-0.456,1.2-0.806c0.339-0.358,0.603-0.78,0.772-1.243c0.365-1.026,0.365-2.146,0-3.174
	C35.553,53.172,35.289,52.748,34.95,52.39z M34.735,56.492c-0.116,0.352-0.304,0.674-0.552,0.95
	c-0.237,0.261-0.531,0.464-0.858,0.596c-0.725,0.276-1.525,0.276-2.25,0c-0.328-0.132-0.623-0.335-0.862-0.596
	c-0.247-0.275-0.435-0.599-0.55-0.95c-0.257-0.828-0.257-1.715,0-2.543c0.115-0.352,0.303-0.677,0.55-0.953
	c0.24-0.26,0.534-0.465,0.862-0.598c0.724-0.279,1.526-0.279,2.25,0c0.327,0.133,0.62,0.337,0.858,0.598
	c0.248,0.277,0.436,0.604,0.552,0.956c0.258,0.827,0.258,1.714,0,2.542V56.492z"/>
<path fill="#07698F" d="M46.381,58.879l-0.796-1.151l-1.753-2.654l2.46-3.56c0,0,0.032-0.013,0.013-0.057
	c-0.02-0.043-0.076-0.009-0.076-0.009h-0.84c-0.054,0-0.1-0.015-0.137,0.015c-0.041,0.029-0.076,0.064-0.104,0.106l-1.896,2.806
	c0,0.005-0.006,0.006-0.008,0.012l-0.129,0.252l-0.018,0.03l0,0l-1.324-2.058v-0.033l-0.666-1.02
	c-0.029-0.037-0.064-0.066-0.105-0.09c-0.037-0.03-0.083-0.022-0.137-0.022h-0.84c0,0-0.062-0.021-0.076,0.009
	c-0.008,0.037-0.004,0.077,0.014,0.111l2.365,3.549l0,0l0.043,0.029l-1.854,2.812l-0.028,0.032l-0.62,0.896
	c-0.016,0.05-0.02,0.103-0.012,0.153c0.021,0.038,0.047,0.074,0.074,0.107h0.84c0.055,0,0.1-0.086,0.138-0.115
	c0.041-0.048,0.076-0.1,0.104-0.156l0.24-0.369l1.619-2.465l0.229-0.345l1.869,2.767l0.268,0.394
	c0.028,0.063,0.063,0.123,0.105,0.179c0.037,0.03,0.082,0.115,0.137,0.115h0.84c0.027-0.034,0.053-0.07,0.075-0.109
	C46.403,58.986,46.398,58.931,46.381,58.879z"/>
<path fill="#07698F" d="M22.292,55.13c0.224-0.066,0.438-0.164,0.636-0.29c0.169-0.109,0.32-0.246,0.447-0.402
	c0.117-0.146,0.208-0.312,0.269-0.488c0.06-0.178,0.09-0.362,0.089-0.549c0.004-0.287-0.049-0.573-0.158-0.84
	c-0.105-0.248-0.273-0.466-0.487-0.631c-0.22-0.172-0.501-0.276-0.843-0.369c-0.342-0.094-0.748-0.114-1.221-0.114h-1.957
	c0,0-0.263-0.03-0.412,0.106c-0.08,0.078-0.149,0.166-0.205,0.263v6.767c0.062,0.141,0.145,0.271,0.243,0.388
	c0.116,0.127,0.405,0.173,0.405,0.173h2.192c0.39-0.003,0.776-0.066,1.146-0.188c0.311-0.097,0.599-0.254,0.849-0.463
	c0.227-0.189,0.406-0.429,0.526-0.699c0.122-0.282,0.183-0.588,0.179-0.895c0-0.478-0.144-0.865-0.43-1.164
	C23.276,55.445,22.854,55.242,22.292,55.13z M19.524,52.252h1.499c0.573,0,0.995,0.09,1.267,0.297
	c0.272,0.208,0.408,0.533,0.408,0.984c0.002,0.182-0.033,0.361-0.102,0.529c-0.068,0.162-0.176,0.305-0.314,0.413
	c-0.157,0.14-0.339,0.247-0.537,0.317c-0.246,0.086-0.502,0.135-0.763,0.145h-1.458V52.252z M22.87,57.429
	c-0.063,0.169-0.168,0.32-0.303,0.44c-0.15,0.145-0.33,0.256-0.526,0.326c-0.246,0.088-0.504,0.135-0.765,0.142h-1.751v-2.685h1.747
	c0.569,0,0.994,0.078,1.275,0.31c0.28,0.223,0.437,0.565,0.421,0.924c0.002,0.187-0.03,0.371-0.097,0.545L22.87,57.429z"/>
</svg>
