<svg xmlns="http://www.w3.org/2000/svg" xmlns:xlink="http://www.w3.org/1999/xlink" viewBox="0 0 577.98 346.08"><defs><style>.cls-1{isolation:isolate;}.cls-2{fill:#11b0b0;}.cls-3{fill:#bae3e3;}.cls-4{fill:#ffe100;}.cls-5{opacity:0.35;fill:url(#linear-gradient);}.cls-5,.cls-6{mix-blend-mode:multiply;}.cls-6{opacity:0.25;fill:url(#linear-gradient-2);}</style><linearGradient id="linear-gradient" x1="349.64" y1="140.81" x2="349.64" y2="123.08" gradientUnits="userSpaceOnUse"><stop offset="0" stop-color="#fff" stop-opacity="0"/><stop offset="1"/></linearGradient><linearGradient id="linear-gradient-2" x1="353.04" y1="106.93" x2="350.52" y2="110.54" gradientUnits="userSpaceOnUse"><stop offset="0.24" stop-color="#fff" stop-opacity="0"/><stop offset="1"/></linearGradient></defs><title>pampers_color</title><g class="cls-1"><g id="Layer_1" data-name="Layer 1"><path class="cls-2" d="M97.5,185.75c0-37.33-25.33-47.83-44.33-47.83s-33.33,7.33-42.5,20.5S-.67,187.75.16,219.58s5.5,63.5,7.67,82.17,10.5,22.33,20.67,22.33,11.33-3.5,10.17-11c-1.17-11.17-6.5-55-6.5-55C89.66,250.75,97.5,205.92,97.5,185.75ZM29.33,232.42s-10.67-67.17,21-68.17c18,0,20.5,19.83,20.5,24.83S70.83,225.75,29.33,232.42Z"/><path class="cls-2" d="M116.83,210.08c-6.5,0-18,.83-18,11.67s8.5,10,14.33,10,10.5,3.83,10.5,7.5v5.17c-38.5,0-56.33,18.33-56.33,35.5s11.5,32.36,28.33,32.36,26.67-17.36,26.67-17.36-.67,8,2.83,13,15.17,4.33,18,4.33,3.33-3.33,3.33-9.83v-61.5C146.5,213.58,123.33,210.08,116.83,210.08Zm1.5,70.5c-4.83,9-17.45,13.84-22.33,7.33-5-6.67,0-15.5,4.5-19.17,9-7.83,22.33-6.17,22.33-6.17A39.09,39.09,0,0,1,118.33,280.58Z"/><path class="cls-2" d="M184.33,256.58v49.5c0,6.83-1.33,8.5-5.67,8.5s-21.5-.83-21.5-22.33V225.58c0-5,5.67-15.5,16.33-15.5,4,0,7.33,2.67,7.33,7.83v7.83s8.17-10.83,24.83-10.83a26.91,26.91,0,0,1,23.5,13.17s7.5-13.33,25.5-13.33S283,230.25,283,243.58v60.5c0,6.83-5.33,7.5-9.5,7.5s-17.67-4.17-17.67-20.67-.17-33.33-.17-39.67-3.83-10.67-10-10.67-12.33,5.67-12.33,12v46.17c0,8.5-8.17,8.67-10.33,8.67s-16.17-2.34-16.17-16.5-.17-27.33-.17-35-1.83-15.17-9.17-15.17S184.33,245.25,184.33,256.58Z"/><path class="cls-2" d="M328,207.92c-32,0-35.33,26.33-35.33,38v86.83c0,12.33,10.67,13.33,14.83,13.33s8.17-2.17,8.17-5.5V306.25c37.5-3,51.67-34.83,51.67-56.67C367.33,223.75,351.16,207.92,328,207.92Zm-12,76.17V246.25c0-6.83,3.5-14,14-14s14.33,9.5,14.33,17.67S340.66,283.25,316,284.08Z"/><path class="cls-2" d="M442.77,275.06c-1.93-2.89-6.9-5.62-13.16.32s-12.36,11.23-21,11.23-9.79-7.22-9.79-12.2c0,0,32.9-11.23,39.48-14.28s7.06-7.22,6.9-13.48-5.13-36.57-35-36.57c-13.8,0-29.53,13.78-34.5,37-2.41,12.84-8.35,61.95,30.33,61.95,24.71,0,35.79-17,38.36-22.95S444.7,277.94,442.77,275.06Zm-32.41-42.81c10.8-2.29,11.58,13.32,11.58,13.32l-23.17,7.88C398.78,249,399.57,234.54,410.36,232.25Z"/><path class="cls-2" d="M454.89,224.45c0-4.1,5.52-13.24,16.08-13.24,5.83,0,8,3.15,8,5.52v8.51s10.4-12.45,21.59-12.45c7.41,0,9,8.51,9,11.82s.79,6.93-4.1,9-24.11,9.61-24.11,18.91.16,49,.16,53.27c0,7.09-6.62,7.25-9.46,7.25s-17.18-.32-17.18-17.34Z"/><path class="cls-2" d="M514.46,238.32c0-8.51,1.42-29.47,32.15-29.47,21.28,0,31.36,17.65,31.36,27.74,0,3.47-2.36,6.78-7.25,8.51s-11,.79-13.08-3.78-5.36-10.72-11.43-10.72-7.8,6-7.8,7.57c0,6,7.25,10.72,21,23.17s15.76,18.91,15.76,30.58-10.4,27.58-32.31,27.58c-18.91,0-31.84-9.77-38.93-20-2.68-4.57-1.1-10.72,1.73-15s7.41-6.3,11.35-2.36,13.08,14.66,24.43,14.66c6,0,8.83-4.1,8.83-8,0-7.25-14.34-13.55-24.27-24.59C513.36,250.3,514.46,238.32,514.46,238.32Z"/><path class="cls-3" d="M469.5,120.67c4.58,0,8.17-.17,8.17-3.67v-8c0-3.83-.33-4.67-6.67-4.67s-20.58,1.92-28.67,15.5v8.08S455.92,120.67,469.5,120.67Z"/><path class="cls-3" d="M461.33,42.25c2.33-2.67,3.33-4.42,1.17-6.58s-5.58-4.92-7-6.25-4.17-1.67-7.83,2S433.42,45.08,430.25,54a10.33,10.33,0,0,0,3.25,10.75c1.42,1,3.25,3,5.75,0S461.33,42.25,461.33,42.25Z"/><path class="cls-3" d="M391.33,36.92s-.5-26.5-.67-28.08S384.5,0,374.83,0c-.92,0-1.17.33-1.17,2.58s.67,19.42,1,23S379.16,36.92,391.33,36.92Z"/><path class="cls-3" d="M322.19,44.58c1.38,0,5.19,1.31,8.56,4.13S341.94,58.33,345,64.46c.31,1.31-.12,1.44-2.37,1.44s-12.37-.75-15.25-3.75-9.69-11.25-10.75-12.81S316.19,44.58,322.19,44.58Z"/><path class="cls-4" d="M396.5,53.42c-39.67-1.67-52.33,52-52.33,52s-19.33-14.33-41.33-14.33c-17.17,0-29.67,14.5-29.67,29.33,0,21,16.17,42.83,36.17,58,25.67,20.17,52.17,32.79,66,32.79s27.83-22,35.67-35.63c18.83-33.17,19.67-65.5,19.67-78.17S420.66,55.25,396.5,53.42Zm-40,78.88s19.67,11.62,12.67,21.29C366.5,157.08,356.16,147.17,356.5,132.3Zm46.17-5.21c-4.33,20-17.33,69.33-35.33,69.33-13,0-65.83-42-65.83-68.5,0-9.33,6.63-14.83,12.69-14.83,9.31,0,27.81,10,27.81,10s1.33,46.33,20.5,46.33c7.5,0,18.67-10.83,18.67-19.5,0-6.5-4.34-21.27-23.17-34.5,0,0,6-34.5,32.33-34.5C401.33,80.92,408.83,98.58,402.66,127.08Z"/><path class="cls-5" d="M342,123.08l14.5,9.21a30.17,30.17,0,0,0,.79,7.68l-13.35.84A126,126,0,0,1,342,123.08Z"/><polygon class="cls-6" points="344.17 105.42 358 115.42 358.59 112.82 344.81 103.13 344.17 105.42"/></g></g></svg>