<?xml version="1.0" encoding="utf-8"?>
<!-- Generator: Adobe Illustrator 16.0.0, SVG Export Plug-In . SVG Version: 6.00 Build 0)  -->
<!DOCTYPE svg PUBLIC "-//W3C//DTD SVG 1.1//EN" "http://www.w3.org/Graphics/SVG/1.1/DTD/svg11.dtd">
<svg version="1.1" id="Capa_1" xmlns="http://www.w3.org/2000/svg" xmlns:xlink="http://www.w3.org/1999/xlink" x="0px" y="0px"
	 width="99.148px" height="25.023px" viewBox="0 0 99.148 25.023" enable-background="new 0 0 99.148 25.023" xml:space="preserve">
<g>
	<path fill="#07698F" d="M50.582,0.084C50.656,0.058,50.674,0.02,50.582,0.084C50.582,0.084,50.603,0.07,50.582,0.084z
		 M74.284,0.685c-0.158-0.203-0.281-0.666-0.594-0.602c0.296,0.554,0.475,1.188,0.383,1.818c-0.058-0.479-0.63-1.968-1.25-1.818
		c0.812,0.898,1.412,2.604,0.916,3.784c-0.296-0.818-0.771-1.557-1.123-2.35c-0.162-0.364-0.24-1.557-0.677-1.436
		c0.361,1.429-0.124,2.884-0.315,4.298c-1.27-0.897-0.055-3.171,0.199-4.298c-0.466-0.103-0.938,3.201-0.954,3.67
		c-1.478-0.878-0.432-2.625,0.25-3.67c-0.586-0.148-1.282,2.136-1.486,2.614c-0.3-0.408-0.758-0.484-0.581-1.001
		c0.197-0.557,0.44-1.097,0.727-1.613c-0.497-0.127-0.863,1.186-1.044,1.551c-0.426-0.441-0.912-0.881-0.744-1.551
		c-0.23,0.008-0.397,0.008-0.607,0c0.926,1.895,2.685,3.814,4.591,4.755c0.253,0.125,1.295,0.612,1.479,0.216
		c0.219-0.473,0.398-0.97,0.551-1.467c0.35-1.141,0.542-2.324,0.706-3.505c-0.104-0.027-0.343-0.027-0.445,0
		C74.311,0.279,74.318,0.485,74.284,0.685C74.135,0.493,74.325,0.483,74.284,0.685z M72.184,2.041
		c0.339,0.748,0.239,1.917,0.763,2.752C71.382,4.939,72.072,2.877,72.184,2.041z M73.281,4.617
		c-0.529-0.787-0.505-1.777-0.794-2.651C72.938,2.328,73.99,4.256,73.281,4.617C72.757,3.838,73.332,4.591,73.281,4.617z
		 M13.453,0.743c-0.035-0.3,0.026-0.542-0.191-0.66c0.047,1.029-0.293,1.954-1.211,2.496c-0.025-0.363-0.096-2.563-0.416-2.496
		c0.111,0.771,0.209,1.626-0.043,2.38c-0.245,0.733-1.077,0.906-1.728,1.109c0.035-0.775,0.077-1.55,0.097-2.326
		c0.008-0.354,0.271-1.313-0.314-1.163C9.709,0.982,9.688,1.885,9.583,2.78C9.54,3.132,9.481,3.487,9.402,3.833
		c-0.021,0.104-1.024,0.298-1.17,0.365c0.089-0.882,0.181-1.764,0.229-2.649c0.021-0.377,0.33-1.641-0.31-1.465
		c0.136,1.608,0.37,4.452-1.923,4.529c0.716-1.421,1.005-2.992,1.36-4.529C7.165,0.031,6.917,2.211,6.796,2.633
		C6.542,3.53,6.089,4.725,5.016,4.845c0.622-1.608,0.959-3.41,2.107-4.761c-0.588-0.157-1.227,0.824-1.67,1.149
		C4.641,1.828,3.757,2.331,2.997,2.997c0.125-1.168,1.109-2.241,2.006-2.913c-0.57,0-0.814,0.038-1.183,0.548
		c0.072-0.189,0.163-0.374,0.271-0.548c-0.728,0-0.654,0.341-0.856,1.034c-0.24,0.806-0.42,1.627-0.538,2.459
		c-0.048,0.349-0.082,0.699-0.1,1.051c0.301,0.236,0.679,0.361,1.05,0.437C4.487,5.232,5.357,5.13,6.195,4.995
		c3.151-0.512,6.854-1.826,8.307-4.91h-0.482C13.939,0.084,13.585,0.653,13.453,0.743C13.427,0.525,13.705,0.571,13.453,0.743
		L13.453,0.743z M3.242,3.992C2.828,4.25,2.903,3.814,3.059,3.572C3.248,3.284,3.468,3.019,3.714,2.78
		C4.212,2.286,4.818,1.79,5.528,1.665C4.736,2.402,4.175,3.41,3.242,3.992C3.177,4.031,3.371,3.912,3.242,3.992z M3.309,4.498
		c1.082-0.604,1.681-1.95,2.508-2.57C5.435,2.916,4.946,5.604,3.309,4.498z M57.151,7.343c0.264-0.356,0.617-0.971-0.033-1.189
		c-0.765-0.258-1.437,0.304-2.096,0.583c0.518-0.396,1.495-0.688,1.766-1.334c0.442-1.061-0.97-0.452-1.178-0.94
		c-0.878-2.059-1.81,2.075-1.477,2.075c-0.075-0.752,0.357-2.004-0.157-2.644c-0.768-0.952-0.885,0.67-1.351,0.541
		c-0.898-0.238-1.09,0.562-0.698,1.188c0.104,0.164,1.415,1.318,1.466,1.271c-0.04,0.03-1.366-0.87-1.521-0.958
		c-0.554-0.313-1.834-0.094-1.135,0.712c0.192,0.221,0.377,0.345,0.119,0.592c-0.28,0.268-0.338,0.802,0.044,1.01
		c0.666,0.362,1.443-0.09,2.036-0.369c-0.479,0.274-1.066,0.684-1.425,1.105c-0.461,0.543-0.137,1.299,0.609,1.034
		c0.403-0.146,0.352-0.074,0.554,0.255c0.179,0.294,0.598,0.456,0.889,0.229c0.701-0.544,0.434-1.604,0.451-2.352
		c0.138,0.658,0.076,1.387,0.352,2.013c0.195,0.444,0.917,0.771,1.121,0.142c0.234-0.726,0.065-0.43,0.709-0.63
		c0.695-0.215,0.462-0.898,0.085-1.293c0.389,0.218,0.964,0.392,1.276-0.054C57.898,7.843,57.065,7.671,57.151,7.343
		C57.236,7.229,57.13,7.421,57.151,7.343L57.151,7.343z M53.212,7.057c0.075-0.015,0.103,0.098,0.033,0.109
		C53.169,7.181,53.143,7.069,53.212,7.057z M53.198,7.432c-0.012-0.05,0.036-0.095,0.083-0.067
		C53.373,7.42,53.229,7.531,53.198,7.432z M54.165,7.128c-0.026,0-0.109,0.006-0.079-0.07C54.108,7.085,54.135,7.109,54.165,7.128z
		 M54.026,6.695c0.062-0.011,0.065,0.024,0.009,0.111C53.974,6.774,53.971,6.737,54.026,6.695
		C54.038,6.695,53.969,6.705,54.026,6.695z M53.877,6.422c0.074-0.012,0.104,0.099,0.034,0.111
		C53.835,6.547,53.807,6.437,53.877,6.422z M53.824,7.115c-0.076,0.012-0.104-0.097-0.034-0.111
		C53.865,6.993,53.892,7.104,53.824,7.115z M53.838,6.792c0.022,0.075-0.09,0.098-0.11,0.031
		C53.709,6.751,53.814,6.723,53.838,6.792z M53.644,6.586c0.056-0.019,0.098,0.062,0.052,0.1
		C53.625,6.742,53.558,6.602,53.644,6.586z M53.411,7.746c-0.058,0.021-0.1-0.06-0.052-0.098
		C53.434,7.587,53.494,7.733,53.411,7.746z M53.494,7.396c-0.074,0.012-0.102-0.1-0.032-0.111
		C53.535,7.272,53.563,7.384,53.494,7.396z M53.537,6.935c0.036-0.061,0.14-0.012,0.099,0.057
		C53.605,7.053,53.501,7.005,53.537,6.935z M53.646,7.961c-0.075,0.014-0.102-0.099-0.032-0.109
		C53.69,7.837,53.715,7.948,53.646,7.961z M53.681,7.65c-0.024-0.082,0.11-0.101,0.11-0.021C53.801,7.697,53.698,7.712,53.681,7.65z
		 M53.781,7.413c-0.018-0.072,0.09-0.104,0.11-0.034C53.916,7.453,53.797,7.482,53.781,7.413z M53.962,7.969
		c-0.083,0.017-0.095-0.109-0.029-0.109C54.011,7.843,54.025,7.969,53.962,7.969z M53.946,7.606
		c0.036-0.062,0.142-0.015,0.101,0.054C54.016,7.723,53.912,7.672,53.946,7.606z M54.09,8.104c-0.059,0.011-0.1-0.062-0.052-0.103
		C54.102,7.949,54.179,8.072,54.09,8.104z M54.168,7.343c0.072-0.012,0.104,0.085,0.033,0.111
		C54.126,7.466,54.097,7.357,54.168,7.343z M54.268,7.807c-0.067,0.054-0.14-0.071-0.053-0.103
		C54.275,7.696,54.317,7.767,54.268,7.807z M54.534,7.401c0.065,0.039,0.005,0.135-0.056,0.101
		C54.435,7.456,54.457,7.36,54.534,7.401z M54.544,7.809c-0.056,0.019-0.101-0.063-0.052-0.101
		C54.568,7.651,54.625,7.794,54.544,7.809z M54.472,7.235c-0.012-0.033,0.069-0.077,0.083-0.065
		C54.651,7.227,54.499,7.342,54.472,7.235z M54.749,7.398c-0.073,0.011-0.104-0.099-0.033-0.111
		C54.788,7.275,54.821,7.37,54.749,7.398z M82.591,4.245C82.764,4.142,82.545,4.273,82.591,4.245z M73.304,7.178
		C73.313,7.197,73.31,7.19,73.304,7.178z M73.304,7.177C73.293,7.155,73.276,7.118,73.304,7.177z M73.304,7.177
		C73.304,7.182,73.304,7.172,73.304,7.177C73.304,7.178,73.304,7.177,73.304,7.177z"/>
	<path fill="#07698F" d="M87.938,0.181c-0.086,0.062-0.848-0.098-1.034-0.098h-8.761c-0.51,0-0.792,0.051-0.319,0.697
		c0.395,0.538,1.084,0.659,1.645,0.945c0.431,0.266-0.017,0.883-0.061,1.288c-0.191,1.731,1.411,2.035,2.672,1.487
		c-0.416,0.974-1.162,1.169-2.159,1.39c-0.554,0.121-1.271-0.226-1.729-0.512c-0.562-0.38-0.458-0.785-0.715-1.342
		c-0.561-1.212-2.053,0.046-1.019,0.713c0.382,0.247,0.89,0.237,1.203,0.565C77.9,5.56,78.49,6.003,78.855,6.003
		c-0.731,0.037-1.458-0.099-2.188-0.062c-0.625,0.028-1.207,0.224-1.83,0.224c-0.479,0-1.203-0.089-1.52,0.377
		c-0.198,0.291-0.052,0.796,0.271,0.942c0.382,0.172,0.842-0.167,1.119-0.396c0.455-0.369,0.664-0.679,1.268-0.789
		c1.188-0.213,2.805,0.377,3.908-0.134c-0.35,0.159-0.757,0.407-1.132,0.5c-0.427,0.114-0.914,0.113-1.324,0.283
		c-0.644,0.268-0.389,1.429,0.319,1.237c0.349-0.097,0.421-0.457,0.59-0.724c0.22-0.343,0.595-0.583,0.961-0.747
		c0.463-0.21,0.967-0.368,1.365-0.699c0.24-0.193,0.635-0.165,0.874-0.375c-0.433,0.775-0.863,1.302-1.447,1.993
		c-0.361,0.431-1.519,1.817-2.148,1.657c-0.578-0.137-1.409-1.465-2.068-0.683c-0.585,0.694,0.861,1.274,1.37,1.185
		c-0.973,0.465-1.783,0.2-2.787,0.229c-0.9,0.025-1.667,1.38-0.451,1.458c0.994,0.062,1.589-0.964,2.475-1.152
		c0.923-0.195,1.861-0.712,2.562-1.342c-0.568,0.837-0.716,1.738-1.565,2.338c-0.395,0.278-0.818,0.479-1.306,0.513
		c-0.53,0.037-1.233-0.043-1.603,0.441c-0.256,0.336-0.134,0.824,0.271,0.967c0.486,0.172,1.013-0.182,1.353-0.5
		c0.202-0.189,0.312-0.393,0.457-0.618c0.261-0.383,0.968-0.443,1.295-0.828c-0.392,0.969-0.894,1.947-1.692,2.644
		c-0.623,0.542-2.407,0.974-1.993,2.159c0.191,0.548,0.886,0.444,1.216,0.106c0.386-0.395,0.558-1.037,0.753-1.542
		c0.212-0.546,0.675-0.943,1.004-1.414c0.357-0.525,0.659-1.085,0.897-1.674c0.01,0.506,0.215,1.111,0.191,1.588
		c-0.23,0.461-0.688,0.667-0.992,1.073c-0.251,0.376-0.185,1.394,0.503,1.156c0.502-0.173,0.785-0.991,0.757-1.467
		c0.207,0.571,0.557,1.113,0.035,1.6c-0.539,0.501-1.451,0.406-1.908,0.989c-0.649,0.829,0.355,1.773,1.197,1.212
		c0.388-0.26,1.05-0.863,1.173-1.358c-0.12,0.825-0.762,1.424-1.156,2.128c-0.362,0.649-0.41,1.876,0.692,1.635
		c0.605-0.132,0.884-0.755,0.938-1.316c0.036-0.404-0.044-0.812-0.108-1.21c-0.067-0.417,0.027-1.003-0.084-1.386
		c0.209,0.524,0.444,1.14,0.947,1.454c0.663,0.417,1.478-0.139,1.303-0.905c-0.174-0.769-1.214-1.143-1.82-1.494
		c-0.798-0.467-0.678-1.126-1.116-1.856c0.292,0.392,1.088,1.328,1.688,1.032c1.063-0.524-0.106-1.78-0.781-1.917
		c-0.879-0.178-1.295-0.35-1.135-1.341c0.152-0.933,0.598-1.73,1.114-2.507c-0.065,0.856,0.278,1.705,0.766,2.395
		c0.229,0.326,0.623,0.594,0.8,0.944c0.197,0.39,0.117,0.813,0.119,1.231c0.002,0.49,0.369,1.604,1.067,1.021
		c0.352-0.294,0.211-1.314-0.154-1.57c0.337,0.237,0.698,0.446,0.948,0.783c0.212,0.286,0.381,0.608,0.712,0.777
		c0.833,0.426,1.116-0.925,0.312-1.19c-0.338-0.114-0.714-0.044-1.061-0.126c-0.288-0.067-0.571-0.347-0.813-0.502
		c-0.874-0.561-1.429-1.18-2.023-2.017c0.401,0.301,1.305,0.808,1.783,0.415c0.302-0.248,0.24-0.733,0.039-1.021
		c-0.341-0.479-0.882-0.396-1.387-0.311c-0.294,0.048-0.746,0.225-0.8-0.17c-0.063-0.469-0.062-0.939,0.25-1.322
		c0.691-0.849,1.584-1.744,1.918-2.813c0.124,1.278,1.185,3.972,2.922,2.776c0.321-0.22,0.554-0.526,0.835-0.789
		c0.405-0.377,0.543-0.206,0.928,0.121c0.362,0.309,0.761,0.311,0.96,0.744c0.238,0.529,0.498,1.05,0.777,1.559
		c-1.592-0.368-2.631,1.196-2.968,2.519c1.653-0.052,2.486-0.86,3.081-2.321c0.292,0.494,0.629,0.96,0.984,1.41
		c-2.183-0.153-3.143,2.269-3.227,4.046c2.145-0.514,2.982-1.79,3.371-3.865c0.667,0.833,1.367,1.642,1.949,2.54
		c-2.105-0.625-3.557,1.586-3.994,3.304c0.896-0.026,1.831-0.204,2.574-0.731c0.824-0.586,1.157-1.516,1.527-2.409
		c0.388,0.621,0.741,1.287,0.831,2.025c-1.597-0.508-2.711,1.2-3.042,2.495c1.614-0.05,2.48-0.82,3.063-2.276
		c0.027,0.369,0.165,1.291-0.093,1.588c-0.349,0.404-0.557,0.933-0.621,1.458c-0.172,1.388,0.676,2.655,1.64,3.562
		c0.507-0.98,0.828-2.145,0.468-3.232c-0.178-0.538-0.512-1.003-0.865-1.438c-0.417-0.513-0.363-0.819-0.399-1.472
		c1.17,0.886,2.177,1.196,3.543,0.453c-0.835-0.849-2.567-1.726-3.549-0.552c-0.05-0.833-0.235-1.488-0.62-2.229
		c0.749,0.446,1.487,0.961,2.383,1.035c1.02,0.084,1.993-0.367,2.811-0.933c-0.771-0.629-1.698-1.159-2.707-1.248
		c-0.817-0.071-2.125,0.233-2.529,1.061c-0.473-0.896-1.04-1.744-1.696-2.515c1.683,1.05,3.227,1.054,4.876-0.091
		c-0.97-1.145-2.366-1.524-3.787-1.044c-0.308,0.105-0.607,0.241-0.883,0.415c-0.554,0.351-0.473,0.449-0.925-0.103
		c-0.478-0.584-0.898-1.213-1.259-1.876c1.046,0.822,2.11,0.899,3.292,0.259c-0.872-0.884-2.399-1.628-3.484-0.623
		c-0.172-0.338-0.333-0.682-0.48-1.031c1.551,0.27,1.943-1.277,1.809-2.514c-0.168-1.543-1.136-2.717-1.771-4.08
		c0.857,1.105,1.48,2.375,2.325,3.489c0.654,0.862,2.218,2.015,3.185,0.829c0.679-0.833-0.688-2.349,0.281-2.729
		c1.112-0.433,2.054-1.657,1.004-2.715c-0.205-0.104-0.731,0-0.954,0h-4.663C88.618,0.084,88.168-0.003,87.938,0.181
		C87.835,0.253,87.974,0.152,87.938,0.181z M83.947,3.698c-0.413,0.781-0.9,1.549-1.065,2.431c-0.446-0.33-0.939-1.498-0.291-1.884
		c1.024-0.611,1.664-1.586,2.405-2.48C84.665,2.417,84.289,3.048,83.947,3.698C83.534,4.48,84.289,3.048,83.947,3.698z
		 M85.313,0.451c-0.151,0.104-0.348-0.098-0.196-0.218C85.268,0.126,85.464,0.34,85.313,0.451z M85.737,0.924
		c-0.164-0.182,0.14-0.275,0.217-0.192C86.08,0.87,85.862,1.062,85.737,0.924C85.61,0.784,85.864,1.064,85.737,0.924z M86.419,0.307
		c0.016-0.188,0.309-0.161,0.292,0.021C86.696,0.514,86.407,0.491,86.419,0.307C86.434,0.12,86.407,0.492,86.419,0.307z
		 M86.765,1.067c-0.023,0.325-0.496-0.021-0.207-0.14C86.659,0.889,86.771,0.952,86.765,1.067
		C86.752,1.254,86.764,1.085,86.765,1.067z M87.463,0.827c-0.145,0.146-0.364-0.089-0.208-0.203
		C87.402,0.482,87.562,0.729,87.463,0.827C87.46,0.83,87.46,0.83,87.463,0.827z M87.89,1.007c-0.141,0.099-0.355-0.101-0.195-0.217
		C87.834,0.69,88.043,0.881,87.89,1.007C87.736,1.114,88.037,0.886,87.89,1.007z M98.171,9.551
		c-0.458,0.344-0.071,1.021,0.447,1.021C99.577,10.568,99.118,8.852,98.171,9.551z"/>
	<path fill="#07698F" d="M76.221,4.768c-0.273-0.718-1.171,0.142-0.764,0.623C75.777,5.769,76.516,5.546,76.221,4.768z
		 M61.123,0.831c0.318,0,0.531-0.227,0.526-0.54c-0.005-0.322-0.242-0.208-0.501-0.208c-0.074,0-0.612-0.058-0.655,0
		C60.396,0.459,60.757,0.833,61.123,0.831C61.592,0.831,60.721,0.833,61.123,0.831z M0.205,3.434
		c-0.459,0.338-0.074,1.019,0.444,1.016C1.608,4.449,1.148,2.733,0.205,3.434z M98.192,7.564c-0.271-0.716-1.17,0.142-0.763,0.623
		C97.749,8.562,98.487,8.341,98.192,7.564z M95.736,9.687c0.519,0,0.875-0.778,0.418-1.12C95.209,7.865,94.778,9.684,95.736,9.687z
		 M18.509,0.357c0.197-0.007,0.378-0.108,0.486-0.272h-0.957C18.129,0.259,18.312,0.365,18.509,0.357
		C18.709,0.357,18.271,0.357,18.509,0.357z M19.814,1.253c-0.457,0.339-0.072,1.018,0.444,1.018
		C21.216,2.268,20.759,0.549,19.814,1.253z M70.164,15.121c-0.458,0.341-0.071,1.021,0.448,1.021
		C71.57,16.136,71.111,14.42,70.164,15.121z M29.496,19.039c-0.457,0.339-0.072,1.021,0.445,1.018
		C30.899,20.056,30.441,18.337,29.496,19.039z M52.951,18.23c0.521,0,0.875-0.779,0.418-1.12
		C52.423,16.409,51.993,18.227,52.951,18.23z M70.166,18.446c0.521,0,0.877-0.778,0.419-1.12
		C69.639,16.626,69.207,18.444,70.166,18.446z M73.012,19.163c0.519,0,0.875-0.779,0.418-1.118
		C72.484,17.342,72.054,19.16,73.012,19.163z M7.464,8.728c0.521,0,0.875-0.778,0.418-1.12C6.935,6.906,6.505,8.725,7.464,8.728z
		 M54.041,14.515c0.519,0,0.875-0.778,0.417-1.12C53.513,12.694,53.083,14.514,54.041,14.515z M25.132,1.033
		c0.651-0.002,0.73-0.949,0.039-0.949c-0.252,0-0.571-0.108-0.662,0.193C24.398,0.656,24.765,1.035,25.132,1.033
		C25.705,1.031,24.645,1.035,25.132,1.033z M56.297,16.088c-0.458,0.338-0.07,1.018,0.447,1.018
		C57.703,17.102,57.244,15.384,56.297,16.088z M4.419,10.848c-0.459,0.338-0.071,1.016,0.446,1.016
		C5.825,11.862,5.365,10.145,4.419,10.848z M11.162,10.169C11.162,10.176,11.162,10.163,11.162,10.169
		C11.162,10.17,11.162,10.169,11.162,10.169z M11.162,10.169v-0.002C11.157,10.152,11.152,10.133,11.162,10.169z M11.162,10.171
		v-0.002C11.168,10.193,11.166,10.184,11.162,10.171z"/>
	<path fill="#07698F" d="M50.372,0.135c0.062-0.101-0.212-0.065-0.299-0.052c0.36,0.367-1.104,0.55-1.427,0.583
		c0.111-0.193,0.222-0.388,0.329-0.583h-0.975c0.12,0.234,0.291,0.438,0.5,0.598c-0.799,0.065-1.604,0.023-2.404,0.013
		c0.178-0.201,0.359-0.398,0.525-0.608h-1.039c0.071,0.224,0.187,0.43,0.34,0.606c-0.433-0.005-0.863,0.013-1.293,0.066
		c0.133-0.217,0.253-0.441,0.357-0.674h-0.962c0.089,0.261,0.222,0.521,0.439,0.696c-0.576,0.091-1.148,0.211-1.713,0.359
		c-0.25,0.062-0.5,0.131-0.748,0.204c-0.144-0.185-0.287-0.365-0.441-0.542c0.456-0.114,0.863-0.321,1.135-0.719h-7.116
		c-0.216,0-1.226-0.107-1.309,0.049c-0.12-0.146-0.679-0.049-0.854-0.049h-5.791c0.701,1.202,2.414,1.497,3.675,1.517
		c0.534,0.007,1.14,0.117,1.665,0.05c0.096-0.015,0.314-0.17,0.343,0.024c0.042,0.308-0.299,0.015-0.373,0.007
		c-1.26-0.136-2.854-0.012-4.107,0.168c-0.979,0.139-2.795,1.479-1.461,2.465c-0.631,0.203-1.521,0.833-2.205,0.416
		c-0.643-0.353-0.888-1.142-1.526-1.52c-0.856-0.502-1.017,0.873-0.343,1.315c0.682,0.448,1.623,0.596,2.422,0.596
		c-0.969,0.404-1.741,1.279-2.476,2c-0.321,0.327-1.646,0.973-1.7,0.254c-0.054-0.688,0.26-2.037-0.887-1.996
		c-1.175,0.042-0.39,1.541,0.02,1.995c-0.817-0.492-1.469-0.933-2.065-1.689c-0.21-0.269-0.544-0.56-0.668-0.881
		c-0.155-0.357-0.092-0.769-0.261-1.119c-0.344-0.718-1.608-0.341-1.161,0.431c0.168,0.289,0.47,0.438,0.746,0.599
		c0.409,0.241,0.673,0.586,0.979,0.941c-0.348-0.358-1.566-0.446-1.66,0.207c-0.117,0.799,0.883,0.79,1.394,0.73
		c1.647-0.188,2.709,1.72,4.501,1.3c-0.657,0.531-1.342,1.011-2.156,1.264c-0.946,0.293-1.396,0.151-1.643-0.813
		c-0.211-0.824-0.865-1.467-1.756-1c-0.906,0.481,0.482,1.572,0.914,1.848c-0.568-0.266-1.312-0.161-1.736-0.673
		c-0.477-0.573-0.834-1.523-1.536-1.858c-0.595-0.283-1.349,0.053-1.308,0.781c0.045,0.767,1.111,1.183,1.729,1.311
		c-0.294-0.051-0.646,0.093-0.963,0.06c-0.384-0.042-0.77-0.06-1.154-0.058c-0.771,0.003-1.938,0.415-1.708,1.418
		c0,1.705,3.234-1.02,3.7-1.125c-0.383,0.106-0.841,0.706-1.059,0.992c-0.518,0.687-0.225,2.081,0.856,1.562
		c0.714-0.345,0.621-1.229,0.896-1.855c0.384-0.875,1.027-0.644,1.781-0.415c-0.431,0.013-0.972,0.275-1.248,0.605
		c-0.461,0.551,0.205,1.037,0.754,0.845c0.572-0.201,0.677-0.868,1.142-1.187c0.266-0.18,1.365,0.016,1.735-0.011
		c-0.993,0.542-1.707,1.286-2.594,1.956c-0.457,0.346-2.871,1.24-1.814,2.167c0.885,0.777,1.599-0.841,1.839-1.384
		c0.551-1.242,1.731-1.94,2.862-2.578c-0.299,0.301-0.48,0.809-0.598,1.207c-0.068,0.236-0.361,0.325-0.518,0.479
		c-0.308,0.29-0.604,0.764-0.624,1.194c-0.03,0.66,0.751,1.024,1.167,0.457c0.332-0.455,0.206-1.039,0.188-1.557
		c-0.021-0.588,0.283-1.154,0.604-1.626c0.465-0.685,1.343-0.927,1.992-1.449c-0.61,0.817-0.998,1.777-1.129,2.789
		c-0.106,0.851-1.052,1.454-0.919,2.399c0.133,0.948,1.113,0.688,1.356-0.033c0.179-0.521-0.097-1.101-0.146-1.622
		c-0.055-0.564,0.009-1.134,0.188-1.671c-0.044,0.503,0.478,1.586,1.118,1.375c1.147-0.382-0.547-1.731-0.679-2.115
		c-0.159-0.512,0.828-1.648,1.182-2.003c0.722-0.724,1.302-1.377,2.146-1.896c-0.207,0.28-0.147,0.659-0.33,0.95
		c-0.269,0.431-0.369,0.928-0.562,1.392c-0.128,0.313-0.273,0.647-0.511,0.896c-0.249,0.261-0.672,0.312-0.782,0.701
		c-0.226,0.798,1.111,0.942,1.285,0.09c0.167-0.818,0.221-1.537,0.521-2.335c-0.404,1.134,0.297,2.706,0.209,3.896
		c-0.053,0.715-1.479,1.888-0.943,2.555c0.229,0.285,0.723,0.337,0.979,0.069c0.449-0.465,0.2-1.231,0.162-1.79
		c-0.031-0.483,0.118-0.98,0.102-1.475c-0.026-0.755-0.227-1.491-0.256-2.246c0.066,0.666,0.935,1.209,1.197,1.813
		c0.166,0.383,0.451,0.847,0.942,0.776c0.388-0.054,0.624-0.552,0.503-0.909c-0.14-0.406-0.673-0.543-1.047-0.588
		c-0.515-0.054-0.773-0.249-1.063-0.689c-0.65-0.998-0.64-2.209-0.056-3.258c0.354-0.638,1.769-1.062,2.421-0.875
		c0.339,0.096,0.967,0.094,0.858,0.591c-0.104,0.479-0.152,0.961,0.078,1.415c0.537,1.074,1.699,0.771,2.522,0.216
		c0.98-0.66,1.507-1.697,2.093-2.684c-0.328,1.091-0.858,2.115-1.185,3.21c-0.146,0.486-0.244,1.024-0.093,1.523
		c0.136,0.443,0.473,0.504,0.221,0.921c-0.269,0.444-0.549,0.879-0.854,1.299c-0.146,0.205-0.301,0.405-0.459,0.603
		c-0.239-0.16-0.526-0.259-0.812-0.295c-0.198-0.025-0.958,0.007-0.753,0.426c0.17,0.348,0.839,0.391,1.16,0.357
		c-0.036,0.04-0.461,0.592-0.513,0.556c-0.407-0.168-0.938-0.282-1.381-0.274c-0.213,0.004-0.582,0.161-0.367,0.428
		c0.271,0.334,0.963,0.34,1.345,0.311c-0.099,0.091-0.284,0.409-0.464,0.35c-0.381-0.131-0.799-0.221-1.202-0.146
		c-0.23,0.043-0.562,0.258-0.306,0.512c0.262,0.278,0.729,0.235,1.064,0.183c-0.205,0.195-0.417,0.388-0.631,0.572
		c-0.269-0.245-0.896-0.396-1.244-0.354c-0.32,0.036-0.506,0.328-0.185,0.55c0.266,0.205,0.617,0.209,0.936,0.233
		c-0.145,0.105-0.54,0.555-0.694,0.461c-0.297-0.183-0.662-0.31-1.014-0.321c-0.234-0.009-0.896,0.114-0.527,0.503
		c0.271,0.287,0.694,0.283,1.056,0.293c-0.222,0.165-0.44,0.332-0.668,0.49c-0.083,0.058-0.712-0.375-0.853-0.422
		c-0.188-0.062-0.884-0.232-0.818,0.207c0.066,0.438,0.771,0.526,1.102,0.605c-0.088,0.044-0.524,0.44-0.635,0.353
		c-0.294-0.242-0.662-0.44-1.038-0.514c-0.189-0.035-0.735-0.024-0.562,0.343c0.168,0.352,0.748,0.479,1.084,0.554
		c-0.133,0.074-0.498,0.389-0.658,0.368c-0.348-0.047-0.707-0.392-1.081-0.471c-0.196-0.042-0.787-0.126-0.771,0.257
		c0.019,0.438,0.921,0.541,1.224,0.572c-0.812,0.442-0.633,0.278-1.485-0.021c-0.169-0.061-0.835-0.246-0.861,0.138
		c-0.021,0.413,0.698,0.568,0.986,0.625c-0.627,0.362-0.612,0.336-1.246,0.083c-0.599-0.239-1.208,0.295-0.46,0.563
		c-0.287,0.06-0.943,0.272-0.934,0.652c0.021,0.683,1.144-0.089,1.328-0.227c-0.315,0.507,0.164,1.19,0.53,0.504
		c0.144-0.267,0.177-0.579,0.179-0.876c0-0.185,0.539-0.366,0.705-0.456c-0.432,0.566,0.01,1.56,0.442,0.762
		c0.146-0.264,0.215-0.562,0.202-0.862c-0.021-0.396,0.354-0.438,0.659-0.608c-0.133,0.257-0.262,0.528-0.27,0.824
		c-0.007,0.342,0.397,0.603,0.596,0.212c0.154-0.288,0.26-0.599,0.313-0.921c0.074-0.53,0.143-0.538,0.61-0.816
		c-0.246,0.413-0.021,1.514,0.414,0.831c0.201-0.352,0.23-0.73,0.234-1.122c0.014-0.229,0.457-0.405,0.639-0.524
		c-0.109,0.297-0.199,0.769,0.008,1.048c0.266,0.355,0.582-0.123,0.623-0.37c0.06-0.336-0.033-0.661-0.078-0.99
		c-0.021-0.153,0.615-0.514,0.729-0.601c-0.141,0.3-0.325,0.737-0.096,1.047c0.219,0.29,0.497,0.003,0.599-0.209
		c0.172-0.364,0.125-0.797,0.065-1.183c-0.03-0.203,0.42-0.443,0.548-0.545c-0.123,0.318-0.134,1.659,0.512,1.021
		c0.264-0.26,0.131-0.87,0.063-1.18c-0.099-0.438,0.299-0.597,0.604-0.884c-0.078,0.311-0.16,0.653-0.041,0.967
		c0.174,0.448,0.594,0.227,0.678-0.135c0.104-0.441-0.021-0.879-0.07-1.316c0.021-0.16,0.294-0.361,0.415-0.489
		c-0.031,0.287-0.04,0.619,0.032,0.901c0.078,0.308,0.498,0.51,0.649,0.117c0.138-0.352-0.007-0.766-0.144-1.092
		c-0.194-0.464-0.05-0.454,0.28-0.841c0,0.306-0.002,0.773,0.25,0.996c0.414,0.364,0.567-0.307,0.521-0.584
		c-0.039-0.231-0.134-0.449-0.242-0.656c-0.194-0.364,0.029-0.423,0.267-0.739c0.41-0.548,0.786-1.119,1.127-1.715
		c0.879,0.737,1.6-0.218,2.091-0.869c0.325-0.435,0.522-0.184,0.903,0.051c0.422,0.256,0.932,0.321,1.404,0.182
		c1.113-0.334,0.936-1.777,0.668-2.642c-0.369-1.203-1.318-2.084-1.979-3.121c0.684,0.666,1.277,1.428,1.894,2.154
		c0.293,0.361,0.618,0.694,0.971,0.996c0.527,0.438,0.701,0.274,0.593,0.979c-0.128,0.801-0.222,1.606-0.236,2.419
		c-0.001,0.077-2.271,0.703-2.611,0.877c-0.771,0.404-1.48,0.915-2.108,1.518c-0.399,0.383-1.446,1.515-0.226,0.961
		c1.637-0.738,3.521-1.394,4.883-2.612c-0.027,0.545-0.021,1.092,0.02,1.637c0.023,0.459-0.697,0.547-1.059,0.762
		c-1.187,0.707-2.249,1.604-3.144,2.657c-0.021,0.021-0.913,1.048-0.407,0.952c0.407-0.078,0.961-0.512,1.293-0.746
		c1.256-0.883,2.26-1.936,3.336-3.016c0,0.592,0.049,1.182,0.115,1.77c0.041,0.353,0.086,0.704,0.133,1.055
		c-0.129-0.05-0.341,0.209-0.426,0.277c-0.992,0.776-1.904,1.79-2.431,2.943c-0.112,0.248-0.667,1.165-0.46,1.424
		c0.194,0.243,1.108-0.688,1.237-0.812c0.996-0.935,1.606-2.158,2.149-3.39c0.013,0.628,0.201,1.296,0.334,1.91
		c0.123,0.586,0.22,0.522-0.2,0.852c-1.115,0.87-1.77,2.232-2.127,3.567c-0.078,0.291-0.438,1.197-0.255,1.503
		c0.195,0.321,0.937-0.867,1.021-0.985c0.802-1.131,1.613-2.399,1.855-3.789c0.086,0.388,0.346,0.864,0.346,1.262
		c-0.028,0.77,0.093,1.503,0.313,2.238c0.155,0.512,0.369,1,0.608,1.478c0.13,0.253,0.857,1.502,0.806,0.483
		c-0.06-1.103-0.336-2.265-0.835-3.253c-0.202-0.398-0.526-0.771-0.686-1.188c-0.221-0.59-0.346-1.239-0.498-1.851
		c0.465,0.89,1.756,1.622,2.605,2.057c0.182,0.092,1.103,0.666,1.297,0.479c0.27-0.257-0.66-1.118-0.818-1.272
		c-0.832-0.824-1.938-1.362-2.969-1.896c-0.459-0.236-0.402-0.839-0.5-1.378c-0.117-0.655-0.187-1.315-0.253-1.979
		c0.567,1.14,2.185,2.191,3.271,2.761c0.467,0.242,1.3,0.758,1.854,0.682c0.388-0.055-0.747-1.167-0.866-1.277
		c-1.035-0.966-2.103-1.947-3.367-2.604c-0.614-0.316-0.957-0.188-0.988-0.925c-0.033-0.737-0.114-1.495-0.049-2.23
		c0.328,0.755,1.596,1.397,2.271,1.774c0.505,0.283,1.036,0.515,1.586,0.694c0.245,0.081,0.989,0.428,1.264,0.3
		c0.423-0.197-1.639-1.534-1.836-1.654c-0.912-0.553-1.881-0.936-2.84-1.39c-0.459-0.215-0.396-0.167-0.371-0.683
		c0.034-0.815,0.118-1.629,0.25-2.435c0.095-0.583,0.104-0.316,0.563-0.344c0.418-0.025,0.849-0.203,1.095-0.555
		c0.424-0.649-0.746-2.077-0.242-2.373c0.688-0.404,1.525-1.016,1.227-1.963c0.279,0.389,0.537,0.792,0.771,1.208
		c-1.082,0.255-1.257,1.521-1.068,2.434c0.886-0.463,1.293-1.148,1.217-2.157c0.282,0.537,0.51,1.102,0.679,1.684
		c0.208,0.309,0.135,0.456-0.221,0.447c-0.316,0.124-0.61,0.299-0.869,0.519c-0.814,0.676-1.119,1.697-0.83,2.716
		c1.403-0.55,2.049-1.51,2.1-3.004c0.208,0.732,0.495,1.439,0.857,2.109c-1.691-0.236-2.182,2.182-2.072,3.347
		c1.575-0.618,2.021-1.668,2.106-3.281c0.272,0.518,0.658,0.968,1.129,1.314c-1.147,0.129-1.317,1.568-1.141,2.446
		c1.033-0.542,1.263-1.297,1.199-2.398c0.129,0.096,0.574,0.301,0.627,0.459c0.146,0.459,0.266,0.929,0.52,1.345
		c0.501,0.813,1.444,1.159,2.354,1.263c-0.141-0.841-0.467-1.729-1.158-2.272c-0.375-0.294-0.844-0.469-1.319-0.475
		c-0.506-0.008-0.847-0.273-1.257-0.596c1.152,0.244,1.995,0.027,2.702-0.958c-0.938-0.333-2.485-0.352-2.828,0.853
		c-0.425-0.363-0.691-0.862-0.916-1.365c1.569,0.315,2.696,0.116,3.672-1.243c-1.256-0.445-3.237-0.462-3.732,1.106
		c-0.312-0.735-0.524-1.512-0.766-2.273c1.455,0.624,2.604,0.637,3.817-0.488c-1.145-0.694-3.055-1.102-3.873,0.32
		c-0.131-0.41-0.28-0.814-0.467-1.203c1.168,0.242,2.017,0.054,2.735-0.95c-0.964-0.342-2.377-0.346-2.812,0.8
		c-0.427-0.841-0.924-1.646-1.485-2.403c0.579-0.204,1.174-0.366,1.776-0.481c-0.104,1.114,1.052,1.669,1.975,1.778
		c-0.165-0.991-0.696-1.591-1.667-1.831c0.599-0.101,1.206-0.138,1.812-0.115c0.356-0.101,0.477,0.015,0.354,0.35
		c0.018,0.339,0.091,0.673,0.218,0.987c0.385,0.986,1.262,1.596,2.318,1.641C48.81,2.3,48.1,1.383,46.696,0.869
		c0.763,0.032,1.526-0.02,2.277-0.154c-0.777,1.522,1.396,2.762,2.521,3.021c-0.093-1.696-0.959-2.448-2.456-3.031
		c0.586-0.107,1.051-0.276,1.546-0.616C50.492,0.064,50.442,0.089,50.372,0.135C50.382,0.118,50.396,0.12,50.372,0.135L50.372,0.135
		z M34.266,0.568c0.107-0.1,0.16-0.03,0.154,0.202C34.311,0.811,34.158,0.675,34.266,0.568C34.287,0.548,34.162,0.672,34.266,0.568z
		 M34.029,0.99c0.125,0.107-0.036,0.304-0.169,0.199C33.734,1.079,33.904,0.877,34.029,0.99C34.043,1.001,33.904,0.877,34.029,0.99z
		 M33.644,0.241c0.057-0.055,0.163-0.059,0.214,0.019C34.033,0.53,33.425,0.461,33.644,0.241
		C33.658,0.229,33.513,0.373,33.644,0.241z M33.373,2.438c-0.117,0.12-0.314-0.048-0.197-0.168
		C33.294,2.16,33.496,2.323,33.373,2.438z M33.405,0.839c0.062-0.064,0.187-0.047,0.228,0.045
		C33.743,1.142,33.19,1.029,33.405,0.839C33.418,0.826,33.282,0.948,33.405,0.839z M33.611,2.996
		c-0.124-0.113,0.037-0.311,0.169-0.2C33.904,2.908,33.746,3.098,33.611,2.996z M33.866,1.712c-0.093,0.094-0.282,0.004-0.216-0.142
		C33.729,1.397,34.002,1.578,33.866,1.712C33.86,1.718,33.86,1.718,33.866,1.712z M33.945,2.574
		c-0.137-0.121,0.057-0.294,0.168-0.199C34.242,2.486,34.073,2.672,33.945,2.574C33.819,2.462,34.076,2.674,33.945,2.574z
		 M34.207,1.452c0.104-0.102,0.323,0.036,0.198,0.168C34.287,1.738,34.087,1.57,34.207,1.452C34.218,1.44,34.087,1.57,34.207,1.452z
		 M34.412,3.332c-0.068,0.07-0.188,0.042-0.229-0.046C34.076,3.036,34.615,3.126,34.412,3.332
		C34.398,3.345,34.528,3.213,34.412,3.332z M34.901,1.201l0.175,0.016C34.989,1.395,34.725,1.164,34.901,1.201
		C34.96,1.215,34.877,1.197,34.901,1.201z M34.748,1.776c0.012,0.021,0.006,0.031-0.022,0.026
		C34.752,1.807,34.759,1.796,34.748,1.776z M34.68,2.056c0.091-0.092,0.336,0.022,0.197,0.168
		C34.757,2.333,34.556,2.165,34.68,2.056C34.685,2.049,34.556,2.165,34.68,2.056z M34.8,2.808c-0.107-0.082,0.024-0.323,0.168-0.196
		C35.104,2.723,34.903,2.931,34.8,2.808C34.787,2.796,34.903,2.931,34.8,2.808z M34.939,3.456c-0.138-0.103,0.044-0.304,0.169-0.196
		C35.235,3.363,35.063,3.57,34.939,3.456C34.805,3.356,35.062,3.568,34.939,3.456z M35.339,1.625c0.056-0.056,0.162-0.06,0.211,0.02
		C35.733,1.926,35.111,1.828,35.339,1.625C35.353,1.613,35.205,1.746,35.339,1.625z M35.278,2.297
		c0.056-0.053,0.145-0.051,0.198,0.005c0.011,0.013,0.021,0.026,0.026,0.041C35.611,2.594,35.074,2.501,35.278,2.297
		C35.291,2.284,35.16,2.415,35.278,2.297z M35.548,3.081c-0.129-0.107,0.035-0.304,0.166-0.2
		C35.848,2.986,35.675,3.189,35.548,3.081C35.419,2.973,35.677,3.191,35.548,3.081z M35.766,0.961
		c0.017-0.022,0.22-0.346,0.229-0.026C36.014,1.158,35.712,1.041,35.766,0.961C35.805,0.906,35.697,1.066,35.766,0.961z
		 M35.852,2.348c-0.006-0.167,0.247-0.188,0.26-0.021C36.127,2.493,35.873,2.514,35.852,2.348z M36.139,3.159
		c-0.067,0.067-0.188,0.043-0.227-0.045C35.803,2.864,36.343,2.95,36.139,3.159C36.127,3.171,36.257,3.039,36.139,3.159z
		 M36.125,1.534c-0.16,0-0.19-0.247-0.021-0.258C36.271,1.261,36.289,1.519,36.125,1.534C35.957,1.534,36.289,1.519,36.125,1.534z
		 M36.311,0.834c0.056-0.056,0.162-0.06,0.212,0.02C36.705,1.131,36.08,1.038,36.311,0.834C36.324,0.822,36.173,0.954,36.311,0.834z
		 M36.666,1.946c0.015,0.292-0.438,0.037-0.201-0.098C36.548,1.799,36.659,1.848,36.666,1.946
		C36.671,2.113,36.666,1.961,36.666,1.946z M41.759,1.421c-0.344-0.223-0.73-0.361-1.127-0.46c0.23-0.018,0.46-0.052,0.687-0.101
		C41.377,0.917,41.931,1.366,41.759,1.421C41.418,1.198,41.781,1.414,41.759,1.421z"/>
	<g>
		<path fill="#07698F" d="M41.759,1.421C41.781,1.414,41.641,1.345,41.759,1.421z M50.861,0.976
			C50.706,0.728,51.231,1.571,50.861,0.976z M52.608,1.892c-0.161-0.981-0.864-1.932-1.966-1.81
			c-0.05,0.309,0.058,0.635,0.219,0.894C51.232,1.57,51.946,1.814,52.608,1.892L52.608,1.892z M33.716,19.145
			c0.957-0.003,0.498-1.722-0.446-1.019C32.81,18.467,33.196,19.147,33.716,19.145z M70.231,6.111l0.177,0.099L70.231,6.111z
			 M59.253,8.976c0.665-0.142,1.311-0.313,1.991-0.354c0.158-0.01,1.725-0.08,1.224,0.382c-0.876,0.81-2.307-0.082-3.268,0.477
			c-0.588,0.341-0.584,0.926-0.566,1.526c0.012,0.357,0.02,0.717,0.063,1.07c0.047,0.368,0.521-0.106,0.695-0.2
			c0.438-0.234,1.023-0.611,1.539-0.615c0.477-0.002-0.291,0.485-0.362,0.521c-1.093,0.553-1.652,0.877-1.423,2.25
			c0.077,0.449,0.06,0.844,0.548,0.88c0.585,0.043,1.171,0.16,1.751,0.002c1.436-0.389,1.137-1.854,1.577-3.003
			c0.122-0.319,0.507-0.671,0.477-0.11c-0.027,0.523-0.222,1.041-0.375,1.538c-0.107,0.354-0.56,1.111-0.007,1.172
			c0.558,0.063,1.282,0.104,1.823-0.1c1.075-0.403,0.576-2.667,0.522-3.519c-0.004-0.067,0.027-1.461,0.329-0.856
			c0.319,0.634,0.185,1.451,0.136,2.126c-0.021,0.321-0.229,1.737,0.18,1.707c0.822-0.058,1.522-0.441,1.842-1.216
			c0.349-0.85,0.664-1.821,0.318-2.711c-0.145-0.374-0.342-0.724-0.541-1.067c-0.055-0.094-0.471-1.036,0.117-0.741
			c0.745,0.369,0.923,1.899,0.997,2.609c0.019,0.167-0.021,0.999,0.115,1.061c0.439,0.199,0.775-0.246,1.003-0.546
			c0.882-1.152,2.239-4.042,0.457-5.043c0.067,0.037,0.103,0.058-0.003-0.002l-0.004-0.002c-0.737-0.41-1.642-0.459-2.466-0.438
			c-0.791,0.019-1.403,0.275-1.606-0.686c-0.133-0.625-0.159-1.211-0.431-1.809c-0.138-0.302-0.747-1.119-1.35-1.493
			c-0.657-0.407-1.037-0.153-1.47,0.046c-0.842,0.388-0.608,0.628,0.772,2.012c0.524,0.526,0.973,0.625,0.729,0.767l0.029,0.001
			c-0.216,0.376-1.013-0.341-1.117-0.493c-0.32-0.47-0.644-1.052-1.111-1.393c-0.83-0.604-2.408,1.968-1.968,2.254
			c0.533,0.338,1.112,0.597,1.721,0.767c0.237,0.066,0.581,0.056,0.753,0.271C63.102,6.275,62.729,6.48,62.53,6.5
			c-0.531,0.061-1.182-0.77-1.614-1.014c-0.736-0.418-1.163-0.118-1.504,0.603c-0.289,0.613-0.488,1.264-0.591,1.934
			C58.726,8.63,58.545,9.124,59.253,8.976z M66.194,9.357c0.173-0.351,0.931,1.048,0.232,0.915
			C66.239,10.15,66.065,9.617,66.194,9.357z M64.05,11.927c-0.323,0.229-0.241-0.657-0.183-0.766
			C64.056,10.819,64.387,11.692,64.05,11.927z M63.983,6.398C64.358,6.5,65.44,7.19,65.317,7.307
			c-0.137,0.042-0.284,0.036-0.416-0.019c-0.351-0.071-0.709-0.154-1.019-0.343C63.562,6.75,63.567,6.365,63.983,6.398z
			 M63.81,8.941c-0.261-0.007-0.769-0.087-0.813-0.208c-0.013-0.029-0.024-0.06-0.036-0.088C62.587,7.811,65.775,8.997,63.81,8.941z
			 M62.952,10.604c0.441,0.104-0.449,0.614-0.474,0.244C62.465,10.642,62.756,10.558,62.952,10.604z"/>
	</g>
</g>
</svg>
