<?xml version="1.0" standalone="no"?>
<!DOCTYPE svg PUBLIC "-//W3C//DTD SVG 20010904//EN"
 "http://www.w3.org/TR/2001/REC-SVG-20010904/DTD/svg10.dtd">
<svg version="1.0" xmlns="http://www.w3.org/2000/svg"
 width="700.000000pt" height="700.000000pt" viewBox="0 0 700.000000 700.000000"
 preserveAspectRatio="xMidYMid meet">
<metadata>
Created by potrace 1.11, written by Peter Selinger 2001-2013
</metadata>
<g transform="translate(0.000000,700.000000) scale(0.100000,-0.100000)"
fill="#000000" stroke="none">
<path d="M491 6849 c-117 -23 -241 -111 -305 -218 -72 -119 -66 162 -66 -3141
0 -3258 -4 -3013 55 -3131 30 -58 126 -154 184 -184 118 -59 -127 -55 3131
-55 2698 0 2981 1 3031 16 163 48 297 196 329 363 13 72 14 5892 0 5975 -30
187 -189 346 -376 376 -75 12 -5921 11 -5983 -1z m3349 -906 c279 -47 441 -93
598 -170 264 -129 427 -285 536 -514 150 -312 165 -709 37 -1008 -71 -166
-223 -350 -386 -466 -85 -60 -287 -164 -381 -195 l-69 -24 95 -23 c457 -112
764 -326 900 -625 147 -328 131 -775 -43 -1123 -113 -228 -341 -446 -600 -577
-140 -70 -330 -131 -508 -164 -226 -41 -310 -44 -1290 -44 l-946 0 -6 653 c-4
358 -7 1475 -7 2480 l0 1828 973 -4 c928 -3 978 -4 1097 -24z"/>
<path d="M2440 4595 l0 -846 563 4 c477 3 575 6 650 21 138 27 250 63 345 110
305 153 444 401 429 766 -9 240 -72 405 -202 535 -84 83 -172 134 -310 180
-198 66 -226 68 -882 73 l-593 3 0 -846z"/>
<path d="M2443 2873 c4 -219 7 -608 7 -865 l0 -468 528 0 c575 0 760 9 909 41
222 48 363 119 493 249 102 101 158 199 197 348 35 129 39 366 9 477 -51 191
-156 337 -317 441 -81 52 -136 78 -243 110 -187 57 -198 57 -920 61 l-669 4 6
-398z"/>
</g>
</svg>
